<svg xmlns="http://www.w3.org/2000/svg" version="1.1" xmlns:xlink="http://www.w3.org/1999/xlink" xmlns:svgjs="http://svgjs.dev/svgjs" viewBox="0 0 800 800"><defs><linearGradient x1="50%" y1="0%" x2="50%" y2="100%" id="ccchaos-grad"><stop stop-color="hsl(1.4, 100%, 67%)" stop-opacity="1" offset="0%"></stop><stop stop-color="hsl(167, 52%, 78%)" stop-opacity="1" offset="100%"></stop></linearGradient></defs><g stroke-width="2" stroke="url(#ccchaos-grad)" fill="none" stroke-linecap="round"><path d="M404.72 109.46C414.7 114.8 424.9 120.47 435.3 125.76 445.73 129.68 456.37 132.31 467.18 133.55 478.01 133.02 489.01 131.58 500.09 129.69 511.13 127.41 522.19 125.83 533.13 125.45 543.89 126.19 554.37 128.78 564.39 133.27 573.99 139.25 582.89 146.86 590.9 155.73 598.19 165.31 604.36 175.42 609.24 185.66 613.26 195.54 615.92 204.98 617.24 213.8 617.9 221.68 617.48 228.85 616.21 235.37 614.3 243.6 612.84 258.01 615.64 265.17 619.98 269.88 626.1 275.07 634.03 280.79 643.88 286.59 655.08 292.98 667.15 299.96 679.71 307.05 691.85 314.68 702.75 322.79 712.01 330.97 718.67 339.57 722.15 348.51 722.65 357.47 719.61 366.73 713.21 376.25 704.54 385.77 693.93 395.33 682.32 404.95 670.92 414.61 660.22 424.4 650.92 434.36 643.83 444.48 638.93 454.89 636.26 465.67 636.13 476.72 637.79 488.26 640.77 500.29 645.11 512.62 649.67 525.43 653.86 538.59 657.8 551.8 660.43 565.07 661.43 578.08 661.12 590.47 658.83 602 654.59 612.21 648.87 620.94 641.42 627.73 632.5 632.25 622.55 634.87 611.61 635.18 599.98 633.35 587.93 630.48 575.63 626.51 563.3 622.21 551.02 619.08 538.94 617.32 527.17 617.78 515.66 621.47 504.51 628.25 493.72 638.09 483.21 650.73 472.99 665.08 463.04 679.93 453.28 694.05 443.68 705.82 434.21 713.86 424.82 717.65 415.48 716.37 406.15 710.14 396.85 700.43 387.52 688.01 378.16 674.64 368.8 662.9 359.63 654.03 350.68 649.12 341.74 648.99 333.03 652.96 324.6 660.1 316.2 669.74 308.11 679.75 300.37 688.56 292.69 695.49 285.38 698.88 278.47 698.2 271.59 693.8 265.11 685.51 259.02 674.09 252.89 660.57 247.1 645.76 241.61 630.73 235.96 616.36 230.5 603.3 225.19 592.03 219.56 582.93 213.95 575.87 208.31 570.64 202.24 567.32 196.07 565.14 189.8 563.6 183.09 562.88 176.33 561.98 169.56 560.52 162.54 558.92 155.68 556.31 149.11 552.59 142.61 548.32 136.63 542.88 131.3 536.39 126.37 529.37 122.27 521.46 119.1 512.84 116.47 503.89 114.77 494.44 114.01 484.65 113.64 474.71 114.02 464.59 115.05 454.38 116.09 444.14 117.48 433.89 119.12 423.66 120.32 413.44 121.52 403.48 122.65 393.78 123.2 384.04 123.73 374.49 124.27 365.07 124.44 355.52 124.84 346.01 125.59 336.45 126.35 326.66 127.71 316.72 129.76 306.57 132.18 296.11 135.44 285.39 139.57 274.42 144.21 263.22 149.71 251.86 155.99 240.47 162.69 229.17 170.04 218.14 177.91 207.61 185.97 197.7 194.36 188.7 202.99 180.88 211.54 174.12 220.18 168.76 228.83 164.9 237.24 162.03 245.62 160.4 253.95 159.79 261.96 159.32 269.96 159.11 277.94 158.73 285.66 157.3 293.43 154.97 301.31 151.5 308.98 146.43 316.84 140.27 324.91 133.31 332.84 125.66 341.06 118.21 349.58 111.61 358.03 106.09 366.84 102.52 376.02 101.25 385.16 101.9 394.72 104.76 404.7 109.45" stroke-dasharray="5 6" transform="rotate(0, 400, 400)" opacity="0.17"></path><path d="M411.46 120.33C421.22 125.61 431.14 131.23 441.2 136.55 451.28 140.61 461.5 143.49 471.81 145.06 482.12 144.92 492.48 143.8 502.81 142.12 513.06 139.86 523.18 138.06 533.05 137.2 542.69 137.2 551.91 138.85 560.57 142.25 568.77 147.07 576.2 153.56 582.7 161.45 588.54 170.24 593.31 179.83 596.89 189.85 599.8 199.83 601.55 209.65 602.21 219.1 602.49 227.84 602.01 235.97 601 243.5 600.03 253.27 601.75 269.92 606.36 277.6 611.75 282.43 618.73 287.53 627.26 293 637.37 298.38 648.52 304.25 660.24 310.62 672.17 317.02 683.5 323.94 693.5 331.36 701.89 338.81 707.79 346.75 710.72 355.13 710.92 363.51 707.9 372.33 701.79 381.56 693.61 390.79 683.62 400.23 672.64 409.89 661.77 419.58 651.39 429.55 642.16 439.81 634.85 450.18 629.44 460.93 626.03 472.05 624.96 483.34 625.6 495.04 627.59 507.1 631.02 519.24 634.89 531.61 638.68 544.02 642.53 556.18 645.43 568.04 647.04 579.25 647.68 589.61 646.62 598.81 643.82 606.47 639.71 612.67 633.95 616.96 626.71 619.18 618.42 619.91 609.01 618.81 598.75 616.18 587.93 613.17 576.63 609.73 565.1 606.59 553.43 605.06 541.78 605.23 530.27 607.73 518.88 613.28 507.73 621.58 496.88 632.45 486.21 645.46 475.83 659.56 465.71 673.59 455.76 686.49 446.01 696.85 436.46 703.53 426.99 706.21 417.65 704.24 408.42 697.82 399.22 688.34 390.08 676.47 381.02 663.77 371.96 652.56 363.17 643.91 354.66 638.8 346.16 638.04 337.94 641.07 330.05 647.16 322.16 655.82 314.61 665.16 307.41 673.83 300.22 681.21 293.39 685.67 286.93 686.62 280.45 684.24 274.31 678.15 268.49 668.87 262.58 657.23 256.93 643.82 251.49 629.57 245.84 615.31 240.31 601.7 234.85 589.3 229.05 578.53 223.22 569.51 217.34 562.2 211.03 556.73 204.63 552.6 198.14 549.44 191.28 547.39 184.4 545.61 177.56 543.75 170.57 542.15 163.79 539.96 157.35 536.98 151.06 533.76 145.32 529.59 140.27 524.46 135.64 518.96 131.86 512.56 128.98 505.39 126.64 497.92 125.21 489.82 124.67 481.2 124.51 472.44 125.06 463.3 126.22 453.87 127.37 444.41 128.85 434.73 130.54 424.88 131.81 415.03 133.04 405.26 134.2 395.55 134.77 385.82 135.3 376.12 135.81 366.4 135.92 356.59 136.22 346.7 136.81 336.68 137.36 326.5 138.46 316.13 140.18 305.56 142.21 294.83 145.05 283.92 148.69 272.89 152.83 261.84 157.81 250.82 163.57 239.99 169.78 229.49 176.67 219.48 184.12 210.18 191.84 201.64 199.96 194.14 208.37 187.86 216.81 182.58 225.41 178.61 234.08 175.95 242.6 174.01 251.13 173.02 259.63 172.72 267.89 172.25 276.12 171.75 284.33 170.84 292.31 168.75 300.31 165.7 308.37 161.53 316.23 155.91 324.22 149.37 332.38 142.23 340.39 134.62 348.64 127.39 357.13 121.14 365.55 116.03 374.27 112.84 383.31 111.88 392.33 112.72 401.7 115.66 411.45 120.32" stroke-dasharray="10 4" transform="rotate(4.04, 400, 400)" opacity="0.51"></path><path d="M417.02 131.2C426.51 136.4 436.08 141.97 445.73 147.29 455.37 151.47 465.06 154.59 474.76 156.48 484.42 156.72 494.02 155.97 503.47 154.56 512.81 152.42 521.9 150.52 530.63 149.3 539.1 148.7 547.05 149.5 554.36 151.87 561.24 155.54 567.32 160.85 572.48 167.62 577.1 175.42 580.73 184.23 583.32 193.72 585.43 203.46 586.62 213.33 586.97 223.07 587.2 232.39 586.94 241.28 586.45 249.68 586.49 257.35 586.83 264.53 587.77 271.28 589.99 277.38 593.31 283.23 597.92 288.97 604.19 294.29 611.86 299.7 620.8 305.31 631.02 310.71 641.98 316.46 653.23 322.6 664.48 328.67 674.98 335.21 684.1 342.22 691.63 349.22 696.81 356.71 699.24 364.69 699.18 372.67 696.18 381.14 690.36 390.12 682.67 399.1 673.28 408.39 662.93 417.98 652.58 427.6 642.57 437.56 633.48 447.84 626.02 458.2 620.2 468.9 616.15 479.91 614.22 490.97 613.9 502.3 614.92 513.78 617.41 525.15 620.5 536.48 623.74 547.55 627.29 558.16 630.22 568.15 632.19 577.24 633.44 588.77 626.96 602.45 619.19 604.03 612.54 603.5 604.71 601.66 595.92 598.9 586.49 596.34 576.42 593.93 565.93 592.3 555.16 592.54 544.23 594.66 533.28 599.07 522.31 606.22 511.46 615.73 500.8 627.27 490.25 640.33 479.91 653.93 469.82 666.97 459.85 678.59 450.09 687.55 440.55 692.93 431.09 694.6 421.8 692.04 412.69 685.47 403.6 676.26 394.65 664.94 385.85 652.91 377.04 642.22 368.57 633.81 360.43 628.54 352.29 627.22 344.47 629.37 336.99 634.43 329.5 642.08 322.35 650.68 315.55 659.01 308.72 666.6 302.22 671.87 296.05 674.17 289.81 673.61 283.85 669.6 278.16 662.47 272.32 652.87 266.66 641.18 261.16 628.17 255.4 614.58 249.71 601.02 244.03 588.09 238 576.22 231.93 565.69 225.78 556.62 219.25 549.15 212.64 543.05 205.97 538.07 199.01 534.33 192.07 531.2 185.24 528.36 178.33 526.09 171.69 523.61 165.45 520.71 159.42 517.86 153.98 514.32 149.24 510.02 144.95 505.53 141.49 500.24 138.93 494.18 136.89 487.93 135.73 480.97 135.42 473.41 135.45 465.73 136.15 457.52 137.42 448.88 138.67 440.19 140.22 431.12 141.97 421.71 143.28 412.3 144.56 402.79 145.74 393.19 146.35 383.58 146.88 373.85 147.37 364.01 147.45 354.12 147.67 344.08 148.14 333.87 148.52 323.59 149.37 313.14 150.79 302.56 152.46 291.96 154.88 281.29 158.05 270.67 161.68 260.21 166.12 249.97 171.32 240.13 176.99 230.76 183.35 222.06 190.31 214.22 197.59 207.17 205.33 201.2 213.42 196.41 221.63 192.48 230.06 189.69 238.64 187.97 247.14 186.68 255.71 186.03 264.29 185.76 272.7 185.05 281.1 184.08 289.49 182.52 297.68 179.72 305.88 175.94 314.11 171.13 322.17 165.03 330.32 158.2 338.57 150.98 346.7 143.5 354.99 136.56 363.48 130.69 371.89 126.01 380.55 123.21 389.46 122.54 398.35 123.57 407.53 126.57 417.01 131.19" stroke-dasharray="7 1" transform="rotate(8.08, 400, 400)" opacity="0.14"></path><path d="M420.82 142.07C429.98 147.19 439.15 152.68 448.3 157.98 457.44 162.27 466.53 165.6 475.51 167.8 484.45 168.44 493.21 168.08 501.73 166.99 510.11 165.05 518.15 163.16 525.73 161.72 533.06 160.64 539.82 160.72 545.89 162.17 551.59 164.74 556.52 168.87 560.58 174.45 564.24 181.11 567.02 188.92 568.95 197.6 570.6 206.78 571.54 216.34 571.89 226.04 572.35 235.59 572.57 244.93 572.78 253.94 573.67 262.42 575.01 270.47 577.06 278.11 580.36 285.17 584.71 291.9 590.25 298.42 597.25 304.48 605.41 310.48 614.6 316.53 624.77 322.3 635.41 328.26 646.11 334.5 656.63 340.59 666.28 347.06 674.53 353.93 681.25 360.74 685.76 368 687.72 375.74 687.43 383.46 684.46 391.68 678.94 400.42 671.71 409.16 662.91 418.23 653.17 427.61 643.36 437 633.74 446.72 624.84 456.72 617.32 466.73 611.18 477 606.59 487.44 603.9 497.83 602.7 508.29 602.78 518.69 604.32 528.83 606.57 538.67 609.15 548.01 612.24 556.77 614.98 564.7 617.06 571.57 617.35 583.79 601.71 585.37 591.27 582.13 583.3 580.51 574.58 579.48 565.3 579.57 555.65 581.64 545.68 585.61 535.53 591.72 525.27 600.17 514.98 610.55 504.77 622.41 494.57 635.24 484.52 648.11 474.65 660.04 464.85 670.32 455.24 677.91 445.84 682.07 436.5 682.83 427.35 679.75 418.39 673.12 409.47 664.19 400.72 653.43 392.15 642.04 383.58 631.87 375.37 623.71 367.53 618.34 359.67 616.51 352.15 617.85 344.98 621.93 337.78 628.56 330.91 636.32 324.36 644.19 317.75 651.76 311.44 657.56 305.41 660.93 299.27 661.93 293.37 659.83 287.66 654.77 281.77 647.29 276.01 637.52 270.34 626.09 264.41 613.66 258.49 600.71 252.55 587.86 246.29 575.51 239.96 564.03 233.57 553.65 226.85 544.54 220.08 536.66 213.3 529.9 206.29 524.35 199.37 519.62 192.62 515.43 185.87 511.99 179.44 508.68 173.46 505.28 165.19 500.39 152.77 488.22 148.98 480.53 147.24 475.09 146.33 468.98 146.24 462.24 146.45 455.42 147.29 448.01 148.67 440.07 150 432.1 151.61 423.64 153.39 414.71 154.75 405.78 156.06 396.63 157.27 387.28 157.92 377.93 158.47 368.39 158.97 358.67 159.03 348.94 159.21 339.04 159.57 328.99 159.81 318.96 160.46 308.82 161.61 298.64 162.95 288.58 164.96 278.58 167.67 268.78 170.79 259.29 174.69 250.19 179.32 241.63 184.41 233.64 190.19 226.41 196.59 220.1 203.35 214.54 210.61 209.99 218.28 206.53 226.14 203.71 234.28 201.82 242.62 200.74 250.99 199.79 259.46 199.2 268 198.7 276.45 197.56 284.91 195.96 293.38 193.67 301.71 190.14 310.04 185.67 318.39 180.28 326.6 173.81 334.86 166.78 343.18 159.57 351.41 152.31 359.74 145.71 368.2 140.27 376.61 136.03 385.18 133.61 393.94 133.23 402.68 134.44 411.64 137.49 420.8 142.06" stroke-dasharray="9 10" transform="rotate(12.12, 400, 400)" opacity="0.91"></path><path d="M422.45 152.93C431.25 157.96 439.96 163.36 448.56 168.63 457.14 173 465.57 176.52 473.81 179.01 481.98 180.04 489.9 180.08 497.48 179.36 504.92 177.71 511.94 175.93 518.46 174.39 527.6 172.74 542.2 176.22 547.46 182.09 550.43 187.53 552.69 194.19 554.27 201.85 555.75 210.17 556.74 219.1 557.37 228.4 558.28 237.81 559.15 247.23 560.2 256.52 562 265.5 564.36 274.19 567.46 282.54 571.74 290.43 576.99 298 583.3 305.31 590.84 312.19 599.32 318.91 608.57 325.57 618.55 331.93 628.77 338.35 638.84 344.91 648.59 351.29 657.4 357.93 664.8 364.86 670.75 371.71 674.62 378.92 676.16 386.54 675.67 394.13 672.75 402.16 667.51 410.64 660.74 419.13 652.51 427.89 643.37 436.9 634.1 445.91 624.9 455.14 616.24 464.55 608.73 473.93 602.37 483.42 597.33 492.92 593.98 502.28 591.98 511.52 591.19 520.48 591.8 529.1 593.18 537.22 595.03 544.67 602.29 566.28 593.01 568.49 584.69 566.46 578.17 566.14 570.84 566.71 562.86 568.6 554.46 572.43 545.61 578.05 536.45 585.55 527.1 594.98 517.59 605.86 508.04 617.73 498.44 630.06 488.88 642.01 479.43 652.73 469.99 661.67 460.69 667.94 451.57 670.96 442.48 670.9 433.56 667.4 424.83 660.75 416.13 652.14 407.6 641.92 399.26 631.17 390.92 621.52 382.95 613.63 375.33 608.19 367.7 605.93 360.41 606.52 353.44 609.66 346.43 615.28 339.72 622.16 333.31 629.42 326.81 636.78 320.57 642.86 314.56 647.02 308.41 649.29 302.45 648.86 296.63 645.73 290.61 640.32 284.67 632.58 278.78 622.97 272.63 612.06 266.47 600.22 260.28 587.99 253.79 575.77 247.25 563.95 240.66 552.81 233.82 542.56 226.95 533.29 220.13 525 213.17 517.79 206.34 511.43 199.75 505.75 193.22 500.89 187.08 496.39 181.41 492.07 173.69 486.17 162.4 473.47 159.13 466.12 157.69 461.06 157.03 455.43 157.14 449.23 157.52 442.99 158.49 436.18 159.95 428.82 161.35 421.44 163 413.53 164.82 405.12 166.22 396.7 167.56 387.99 168.79 379.04 169.48 370.11 170.07 360.96 170.58 351.62 170.66 342.32 170.81 332.87 171.1 323.34 171.23 313.89 171.71 304.42 172.62 295.04 173.66 285.85 175.3 276.87 177.59 268.23 180.22 259.97 183.57 252.21 187.63 245.11 192.12 238.57 197.29 232.83 203.08 227.98 209.25 223.76 215.95 220.45 223.1 218.05 230.49 216.05 238.22 214.74 246.21 213.96 254.29 213.05 262.54 212.25 270.9 211.3 279.24 209.57 287.64 207.26 296.06 204.2 304.41 199.97 312.77 194.88 321.14 189.01 329.42 182.26 337.72 175.16 346.05 168.06 354.31 161.08 362.64 154.88 371.03 149.88 379.38 146.09 387.84 144.07 396.4 143.96 404.95 145.34 413.64 148.42 422.44 152.93" stroke-dasharray="8 1" transform="rotate(16.16, 400, 400)" opacity="0.68"></path><path d="M421.75 163.8C430.14 168.72 438.35 174.02 446.37 179.23 454.36 183.66 462.13 187.35 469.61 190.11 477.04 191.51 484.13 191.97 490.83 191.64 500.46 189.56 516.93 185.23 523.54 184.77 529.21 186.46 537.2 197.58 539.74 206.79 541.33 214.03 542.61 222.06 543.73 230.63 545.25 239.53 546.89 248.66 548.84 257.86 551.57 266.97 554.9 275.96 558.95 284.73 564.08 293.2 570.08 301.42 576.96 309.38 584.86 316.99 593.48 324.42 602.65 331.7 612.3 338.71 622 345.67 631.4 352.67 640.35 359.48 648.32 366.42 654.9 373.53 660.12 380.56 663.41 387.84 664.56 395.4 663.9 402.93 661.04 410.79 656.09 418.99 649.76 427.19 642.09 435.55 633.53 444.03 624.81 452.5 616.05 461.07 607.67 469.66 600.24 478.19 593.74 486.65 588.36 494.96 584.46 503.08 581.75 510.9 580.15 518.27 580.14 528.49 584.2 544.48 586.81 549.72 585.98 553.21 568.06 554.69 558.38 559.43 551.27 564.84 543.62 571.85 535.56 580.41 527.26 590.45 518.7 601.5 509.98 613.06 501.15 624.67 492.26 635.56 483.39 645.01 474.5 652.61 465.66 657.62 456.94 659.61 448.23 658.83 439.65 654.98 431.22 648.37 422.81 640.09 414.54 630.43 406.44 620.3 398.35 611.16 390.59 603.56 383.17 598.1 375.73 595.45 368.59 595.37 361.75 597.63 354.86 602.26 348.24 608.22 341.86 614.78 335.4 621.74 329.13 627.86 323.05 632.54 316.83 635.79 310.74 636.76 304.74 635.34 298.55 631.89 292.41 626.16 286.29 618.49 279.92 609.36 273.54 599 267.12 587.86 260.46 576.33 253.77 564.76 247.06 553.47 240.16 542.65 233.29 532.49 226.52 523.11 219.68 514.55 213.04 506.77 206.69 499.7 200.46 493.39 194.66 487.58 189.37 482.12 184.41 477.16 180.1 472.31 176.5 467.42 172.16 460.35 168.04 444.9 168.13 436.2 168.67 430.25 169.74 423.82 171.27 416.89 172.73 409.95 174.41 402.53 176.24 394.62 177.67 386.71 179.04 378.52 180.31 370.12 181.04 361.73 181.67 353.15 182.21 344.44 182.32 335.8 182.47 327.07 182.72 318.34 182.77 309.75 183.12 301.25 183.83 292.94 184.61 284.88 185.92 277.14 187.81 269.84 189.98 262.93 192.82 256.6 196.31 250.95 200.19 245.8 204.74 241.41 209.9 237.84 215.42 234.71 221.5 232.34 228.05 230.67 234.87 229.16 242.08 228.09 249.6 227.3 257.26 226.17 265.15 224.92 273.19 223.36 281.28 220.93 289.47 217.86 297.72 214.05 305.95 209.17 314.21 203.55 322.48 197.32 330.71 190.41 338.95 183.35 347.19 176.45 355.4 169.83 363.63 164.07 371.88 159.55 380.11 156.22 388.38 154.58 396.69 154.74 405 156.26 413.35 159.36 421.74 163.8" stroke-dasharray="6 7" transform="rotate(20.200000000000003, 400, 400)" opacity="0.36"></path><path d="M418.79 174.67C426.73 179.47 434.42 184.65 441.85 189.79 449.26 194.25 456.37 198.07 463.15 201.08 469.87 202.84 476.22 203.7 482.14 203.8 490.64 202.25 504.96 198.05 510.68 196.99 515.67 197.54 523.11 205.36 525.85 212.7 527.75 218.73 529.51 225.64 531.27 233.24 533.5 241.3 535.96 249.78 538.8 258.52 542.41 267.38 546.61 276.27 551.49 285.11 557.31 293.81 563.87 302.36 571.15 310.72 579.22 318.85 587.82 326.8 596.76 334.58 605.98 342.15 615.08 349.61 623.74 357.01 631.9 364.26 639.04 371.52 644.84 378.84 649.37 386.08 652.12 393.44 652.93 400.95 652.12 408.44 649.34 416.11 644.67 423.98 638.77 431.85 631.63 439.73 623.65 447.58 615.47 455.41 607.17 463.18 599.12 470.82 591.82 478.38 585.28 485.71 579.65 492.74 575.3 499.57 571.98 505.97 569.67 511.81 573.5 534.52 570.75 538.36 565.97 540.25 562.01 543 557.25 546.88 551.79 552.05 545.93 558.77 539.48 566.83 532.56 576.08 525.38 586.38 517.84 597.27 510.06 608.27 502.13 618.96 494.04 628.68 485.88 636.82 477.66 643.13 469.42 646.96 461.22 648.02 453 646.62 444.85 642.51 436.79 635.98 428.74 628.07 420.79 618.96 412.96 609.43 405.13 600.8 397.6 593.49 390.35 588.05 383.07 585.09 376.06 584.4 369.3 585.85 362.49 589.52 355.9 594.55 349.5 600.33 343.02 606.75 336.69 612.7 330.49 617.63 324.16 621.56 317.91 623.64 311.73 623.68 305.37 621.97 299.03 618.15 292.7 612.42 286.17 605.2 279.61 596.56 273.04 586.88 266.28 576.51 259.52 565.72 252.78 554.83 245.93 544.05 239.16 533.59 232.53 523.62 225.91 514.2 219.55 505.4 213.51 497.21 207.65 489.66 202.25 482.63 197.38 476.04 192.87 469.95 188.98 464.11 185.8 458.41 182.05 450.29 178.83 433.77 179.21 424.99 179.88 419.08 181.05 412.81 182.63 406.17 184.12 399.53 185.83 392.49 187.67 385.07 189.12 377.64 190.51 370.02 191.8 362.24 192.59 354.5 193.27 346.63 193.85 338.73 194 330.89 194.17 323.07 194.41 315.36 194.42 307.79 194.66 300.42 195.21 293.34 195.79 286.51 196.81 280.08 198.34 274.14 201.27 266.06 210.66 253.64 217.13 249.4 221.99 247.05 227.4 245.27 233.3 243.98 239.48 242.62 246.08 241.48 253.02 240.4 260.15 238.81 267.55 236.96 275.14 234.67 282.84 231.5 290.68 227.69 298.61 223.18 306.57 217.75 314.58 211.72 322.63 205.25 330.66 198.32 338.72 191.4 346.77 184.8 354.8 178.6 362.84 173.32 370.86 169.29 378.88 166.42 386.89 165.14 394.88 165.55 402.87 167.2 410.85 170.32 418.78 174.67" stroke-dasharray="9 10" transform="rotate(24.24, 400, 400)" opacity="0.97"></path><path d="M413.89 185.54C421.34 190.21 428.51 195.25 435.37 200.3 442.21 204.76 448.72 208.7 454.86 211.91 463.81 214.64 479.54 214.86 486.22 213.28 497.24 210.27 509.74 214.3 512.99 219.82 515.36 224.58 517.72 230.25 520.18 236.69 523.15 243.68 526.42 251.23 530.1 259.18 534.49 267.4 539.44 275.83 544.99 284.35 551.32 292.9 558.26 301.42 565.75 309.84 573.83 318.16 582.25 326.35 590.83 334.38 599.52 342.29 607.96 350.07 615.87 357.73 623.22 365.29 629.56 372.78 634.62 380.23 638.51 387.62 640.77 395.01 641.26 402.42 640.33 409.82 637.64 417.26 633.24 424.74 627.76 432.23 621.14 439.57 613.73 446.74 606.09 453.88 598.26 460.82 590.57 467.48 583.47 474.06 576.95 480.3 571.18 486.12 564.57 494.34 557.35 507.61 556.29 512.41 559.35 520.22 557.71 526.18 554.2 530.31 551.23 534.55 547.53 539.85 543.16 546.31 538.44 554.02 533.13 562.76 527.3 572.34 521.22 582.56 514.73 592.99 507.92 603.2 500.94 612.83 493.73 621.32 486.36 628.17 478.91 633.23 471.35 635.98 463.75 636.21 456.12 634.28 448.48 629.98 440.86 623.6 433.25 616.06 425.66 607.49 418.14 598.56 410.61 590.43 403.31 583.44 396.23 578.04 389.14 574.83 382.25 573.61 375.55 574.31 368.81 577.08 362.23 581.17 355.8 586.12 349.28 591.88 342.88 597.48 336.57 602.42 330.14 606.75 323.76 609.63 317.42 610.83 310.93 610.61 304.45 608.51 297.97 604.62 291.34 599.32 284.7 592.52 278.07 584.52 271.31 575.65 264.58 566.08 257.92 556.09 251.22 545.9 244.64 535.71 238.26 525.72 231.96 515.98 225.94 506.65 220.29 497.79 214.87 489.36 209.92 481.41 205.51 473.89 201.46 466.8 198.03 460.03 195.27 453.51 192.93 447.28 191.27 441.17 190.32 435.1 189.72 429.19 189.75 423.21 190.38 417.1 191.17 411.04 192.41 404.79 194.03 398.32 195.54 391.85 197.26 385.13 199.09 378.15 200.56 371.17 201.97 364.11 203.29 357.01 204.13 349.93 204.86 342.85 205.49 335.83 205.7 328.88 205.91 322.05 206.16 315.42 206.25 305.82 207.58 288.63 209.2 281.34 211.54 274.98 219.36 265.46 224.89 262.23 231.44 259.55 247.47 255.26 256.72 252.91 263.22 250.71 270.02 248.14 277.06 245.09 284.23 241.18 291.58 236.69 299.06 231.59 306.61 225.73 314.25 219.43 321.93 212.86 329.64 206.02 337.38 199.35 345.11 193.13 352.85 187.4 360.59 182.64 368.28 179.11 375.99 176.69 383.66 175.76 391.26 176.4 398.88 178.17 406.42 181.29 413.88 185.54" stroke-dasharray="2 2" transform="rotate(28.28, 400, 400)" opacity="1.00"></path><path d="M407.54 196.41C414.5 200.93 421.15 205.82 427.48 210.76 433.79 215.21 439.76 219.21 445.37 222.61 453.54 225.82 467.86 227.32 473.99 226.27 484.5 223.15 497.57 224.42 501.51 228.28 504.43 231.81 507.43 236.23 510.62 241.42 514.3 247.19 518.31 253.6 522.72 260.52 527.76 267.8 533.29 275.43 539.33 283.29 545.99 291.3 553.12 299.41 560.64 307.53 568.57 315.67 576.68 323.75 584.79 331.74 592.87 339.68 600.61 347.5 607.75 355.2 614.3 362.84 619.87 370.38 624.24 377.8 627.53 385.2 629.34 392.51 629.56 399.73 628.54 406.95 625.94 414.09 621.82 421.14 616.73 428.19 610.62 434.98 603.76 441.47 596.65 447.94 589.31 454.09 582.01 459.87 575.16 465.58 568.75 470.87 562.91 475.69 551.4 487.8 544.28 500.07 544.3 502.31 545.42 506.47 543.85 516.35 541.25 522.61 539.04 528.13 536.19 534.59 532.73 541.98 528.98 550.32 524.67 559.37 519.84 568.92 514.78 578.75 509.29 588.49 503.42 597.72 497.39 606.2 491.07 613.43 484.51 619.01 477.87 622.91 471.04 624.68 464.09 624.18 457.11 621.84 450.04 617.42 442.91 611.21 435.78 604.06 428.61 596.03 421.43 587.69 414.24 580.06 407.21 573.38 400.33 568.08 393.44 564.67 386.69 562.99 380.07 563.02 373.42 564.94 366.87 568.13 360.43 572.22 353.91 577.24 347.47 582.34 341.08 587.07 334.6 591.53 328.14 594.91 321.71 596.97 315.17 597.94 308.63 597.3 302.1 595.07 295.47 591.57 288.86 586.6 282.27 580.38 275.63 573.21 269.05 565.15 262.59 556.45 256.14 547.31 249.86 537.9 243.82 528.41 237.92 518.93 232.33 509.61 227.13 500.56 222.19 491.76 217.73 483.3 213.8 475.2 210.23 467.41 207.26 459.94 204.93 452.77 202.98 445.85 201.67 439.13 201.01 432.56 200.65 426.15 200.87 419.8 201.63 413.47 202.52 407.2 203.82 400.89 205.46 394.51 206.99 388.14 208.7 381.66 210.51 375.08 211.99 368.51 213.42 361.98 214.75 355.53 215.64 349.11 216.43 342.79 217.12 336.64 217.53 327.61 218.04 311.01 218.48 303.66 220.62 291.56 228.57 278.51 233.22 275.73 238.79 273.08 252.72 267.8 260.91 264.51 266.72 261.61 272.85 258.29 279.24 254.49 285.78 249.93 292.54 244.85 299.46 239.29 306.47 233.15 313.6 226.73 320.8 220.2 328.06 213.58 335.35 207.26 342.66 201.48 349.99 196.28 357.32 192.05 364.6 189.02 371.9 187.04 379.15 186.45 386.31 187.3 393.49 189.17 400.57 192.27 407.53 196.4" stroke-dasharray="2 4" transform="rotate(32.32, 400, 400)" opacity="0.39"></path><path d="M400.41 207.28C406.87 211.64 413.03 216.37 418.88 221.18 424.72 225.57 430.23 229.62 435.4 233.16 442.95 236.81 456.33 239.57 462.17 239.13 472.66 236.34 486.91 235.71 491.64 238.15 495.13 240.56 498.77 243.77 502.62 247.74 506.93 252.24 511.57 257.42 516.57 263.16 522.1 269.3 528.04 275.89 534.37 282.8 541.19 289.97 548.33 297.33 555.71 304.82 563.34 312.42 571.02 320.05 578.57 327.66 586 335.29 593 342.86 599.37 350.32 605.15 357.79 609.99 365.13 613.7 372.34 616.44 379.54 617.85 386.61 617.84 393.53 616.74 400.45 614.24 407.22 610.39 413.81 605.7 420.39 600.07 426.64 593.74 432.52 587.17 438.38 580.32 443.85 573.44 448.91 566.89 453.93 560.63 458.51 554.82 462.62 542.33 473.08 532.48 484.47 531.52 487.21 531.33 493.79 529.54 508.97 527.5 517.05 525.82 523.57 523.59 530.83 520.82 538.79 517.86 547.38 514.36 556.38 510.38 565.57 506.22 574.75 501.61 583.59 496.61 591.72 491.47 598.99 485.99 604.97 480.22 609.34 474.38 612.17 468.29 613.07 462.01 611.97 455.7 609.28 449.22 604.82 442.62 598.83 436.01 592.09 429.29 584.59 422.49 576.82 415.69 569.68 408.97 563.34 402.33 558.15 395.68 554.6 389.11 552.54 382.62 551.97 376.1 553.11 369.64 555.43 363.23 558.67 356.78 562.89 350.36 567.36 343.97 571.71 337.52 576.06 331.08 579.66 324.65 582.28 318.16 584.12 311.67 584.65 305.21 583.81 298.7 581.91 292.22 578.65 285.82 574.18 279.4 568.77 273.09 562.38 266.93 555.2 260.84 547.45 254.96 539.21 249.35 530.68 243.91 521.95 238.81 513.15 234.12 504.42 229.69 495.75 225.74 487.26 222.32 479.03 219.24 470.95 216.72 463.15 214.81 455.62 213.23 448.26 212.24 441.14 211.85 434.23 211.72 427.45 212.1 420.81 212.97 414.31 213.95 407.86 215.28 401.5 216.92 395.19 218.45 388.9 220.15 382.64 221.94 376.41 223.41 370.19 224.84 364.14 226.19 358.28 227.55 349.63 229.25 333.57 229.76 326.31 230.33 313.68 233.19 298.88 235.43 295.35 238.35 292.06 246.83 286.18 252.37 283.14 256.46 280.65 260.95 277.95 265.82 274.95 270.9 271.33 276.31 267.3 282 262.83 287.85 257.73 293.94 252.21 300.2 246.36 306.59 240.09 313.11 233.69 319.73 227.35 326.42 221.05 333.18 215.17 339.96 209.9 346.78 205.25 353.6 201.57 360.39 199.03 367.21 197.47 373.97 197.2 380.65 198.25 387.35 200.19 393.94 203.26 400.4 207.27" stroke-dasharray="4 6" transform="rotate(36.36, 400, 400)" opacity="0.55"></path><path d="M393.24 218.15C399.21 222.35 404.92 226.89 410.35 231.55 415.76 235.87 420.89 239.92 425.73 243.56 435.39 248.46 443.92 251.07 451.4 251.78 459.06 250.14 466.03 248.5 472.61 247.91 480.01 247.95 487.72 250.55 496.16 255.83 506.2 262.9 517.47 272.42 529.96 283.73 543.81 296.18 558.18 309.61 572.12 323.38 585.26 337.52 595.99 351.55 603 365.11 605.24 371.92 606.3 378.59 606.09 385.09 604.94 391.6 602.55 397.92 598.97 404.03 594.65 410.15 589.49 415.89 583.68 421.25 577.62 426.6 571.27 431.56 564.83 436.12 552.78 445.18 541.91 452.62 532.92 458.55 526.77 464.64 522.5 469.71 519.63 474.36 518.64 480.32 517.76 487.16 516.29 495.69 515.08 506.95 512.35 520.6 507.9 536.36 502.95 553.5 496.17 570.46 487.76 585.1 478.92 596.12 468.74 601.33 457.52 599.57 451.85 596.64 445.98 592.2 439.92 586.46 433.85 580.13 427.61 573.16 421.23 565.95 414.84 559.29 408.47 553.29 402.12 548.26 395.77 544.62 389.43 542.25 383.13 541.17 370.48 543.45 357.86 549.28 345.32 556.5 332.65 564.51 319.99 569.77 307.48 571.01 294.94 568.95 282.71 562.25 271.13 551.8 259.97 538.87 249.9 523.92 241.35 508.14 233.84 491.96 228.27 476.06 224.91 460.95 222.73 446.18 222.61 432.22 224.41 419.08 225.44 412.58 226.79 406.23 228.43 400.03 229.94 393.86 231.6 387.81 233.36 381.9 235.54 373.17 239.05 357.09 240.31 349.79 240.85 340.3 241.4 332.11 242.22 325.34 242.49 318.62 243.78 313.19 246.34 308.83 249.31 303.88 253.97 299.23 260.22 294.29 267.27 287.53 275.83 279.56 285.61 270.12 296.01 258.72 307.33 246.48 319.19 234.38 331.37 222.97 343.85 214.12 356.3 209.16 362.57 208.01 368.81 208.03 374.98 209.24 381.16 211.25 387.25 214.26 393.23 218.14" stroke-dasharray="5 9" transform="rotate(40.400000000000006, 400, 400)" opacity="0.28"></path><path d="M386.77 229.02C397.8 237.15 407.92 245.88 417.1 253.81 426.29 259.17 434.64 262.56 442.24 264.14 450.11 263.36 457.59 262.18 464.96 261.52 473.14 260.89 481.78 262.2 491.13 265.72 501.79 270.59 513.44 277.75 525.92 286.75 539.27 296.87 552.72 308.22 565.39 320.21 577.06 332.7 586.33 345.34 592.15 357.72 594.97 370.23 593.46 382.27 587.54 393.55 579.12 404.83 568.2 414.74 556.18 423.28 544.77 431.82 534.11 439.11 524.87 445.35 517.97 451.99 512.67 458.19 508.68 464.51 506.49 472.23 504.65 481.09 502.57 491.6 501.03 504.24 498.41 518.67 494.46 534.31 490.28 550.39 484.53 565.48 477.3 577.78 469.75 586.47 460.87 589.79 450.86 587.01 440.72 579.92 429.63 568.57 417.75 555.09 405.88 543.48 393.83 534.94 381.76 530.6 369.67 531.48 357.5 535.68 345.37 541.56 333.2 548.82 321.07 554.35 309.16 556.91 297.37 557.08 286 553.26 275.37 545.9 265.29 536.16 256.33 524.02 248.9 510.52 242.47 496.19 237.85 481.58 235.28 467.29 233.7 453.05 233.96 439.4 235.92 426.56 238.05 413.84 241.13 401.8 244.79 390.58 247.36 379.35 249.76 369.38 251.86 360.69 252.6 351.98 253.31 344.53 254.2 338.3 254.46 331.89 255.54 326.41 257.65 321.58 259.97 315.91 263.74 310.16 268.92 303.85 274.71 295.84 281.92 286.71 290.31 276.43 299.24 264.76 309.13 252.75 319.63 241.38 330.46 231.06 341.67 223.38 352.97 219.42 364.38 218.65 375.73 222.01 386.76 229.01" stroke-dasharray="3 10" transform="rotate(44.44, 400, 400)" opacity="0.12"></path><path d="M381.67 239.89C391.83 247.64 401.33 256.05 410.14 263.91 418.99 269.64 427.28 273.7 435.1 276.13 443.22 276.28 451.22 275.79 459.29 275.38 468.1 274.53 477.41 275.04 487.34 277.25 498.28 280.34 509.94 285.44 522.07 292.28 534.66 300.08 547 309.25 558.32 319.29 568.53 329.83 576.42 340.8 581.16 351.79 583.29 362.92 581.63 373.82 576.12 384.2 568.46 394.58 558.54 403.9 547.48 412.19 536.77 420.55 526.47 428.1 517.19 435.07 509.78 442.57 503.66 450.09 498.7 458.08 495.4 467.36 492.56 477.8 489.76 489.64 487.64 502.95 484.83 517.39 481.04 532.24 477.25 546.77 472.17 559.75 465.81 569.68 459.25 576.21 451.44 577.89 442.49 574.31 433.45 567.24 423.39 556.62 412.44 544.22 401.49 533.42 390.23 525.1 378.84 520.25 367.46 519.9 355.94 522.56 344.45 527.02 333 533.24 321.63 538.55 310.56 541.81 299.72 543.56 289.38 542.04 279.87 537.39 270.94 530.68 263.16 521.47 256.86 510.56 251.47 498.61 247.77 485.89 245.9 473.05 244.86 460.01 245.45 447.26 247.53 435.12 249.68 423.02 252.68 411.56 256.21 400.91 258.76 390.27 261.19 380.87 263.37 372.69 264.3 364.42 265.19 357.23 266.21 351 266.53 344.43 267.5 338.45 269.3 332.75 271.13 326.14 274.18 319.19 278.45 311.59 283.15 302.56 289.14 292.6 296.23 281.87 303.77 270.31 312.26 258.87 321.43 248.44 330.88 239.31 340.8 232.82 350.95 229.81 361.19 229.64 371.5 233.14 381.67 239.89" stroke-dasharray="8 3" transform="rotate(48.48, 400, 400)" opacity="0.11"></path><path d="M378.47 250.76C387.83 258.1 396.78 266.14 405.29 273.86 413.86 279.84 422.13 284.47 430.18 287.68 438.52 288.79 446.92 289.12 455.51 289.23 464.71 288.57 474.39 288.75 484.56 290.15 495.43 291.98 506.76 295.45 518.23 300.47 529.84 306.21 540.95 313.31 550.87 321.43 559.67 329.99 566.27 339.2 570.03 348.72 571.56 358.37 569.79 368.09 564.69 377.63 557.77 387.17 548.81 396.06 538.72 404.33 528.78 412.71 518.97 420.72 509.82 428.58 502.12 436.95 495.43 445.68 489.7 455.05 485.42 465.43 481.65 476.84 478.08 489.26 475.26 502.52 472.04 516.27 468.15 529.76 464.42 542.41 459.71 553.14 453.92 560.79 448.06 565.35 441.09 565.65 433.05 561.47 424.95 554.55 415.85 544.7 405.84 533.35 395.83 523.36 385.44 515.34 374.87 510.13 364.34 508.72 353.65 509.96 343.01 512.99 332.47 517.96 322.07 522.65 312.03 526.05 302.29 528.71 293.11 528.85 284.81 526.38 277.08 522.29 270.49 515.83 265.29 507.53 260.9 498.18 258.03 487.72 256.8 476.74 256.22 465.4 257.07 454.01 259.21 442.92 261.35 431.8 264.24 421.13 267.64 411.09 270.14 401.05 272.58 392.08 274.82 384.11 275.95 376.03 277.04 368.77 278.2 362.17 278.66 355.16 279.61 348.43 281.23 341.72 282.73 334.14 285.23 326.12 288.77 317.49 292.56 307.77 297.49 297.39 303.44 286.64 309.72 275.55 316.92 264.96 324.84 255.66 332.97 247.78 341.66 242.46 350.68 240.34 359.79 240.7 369.1 244.3 378.47 250.76" stroke-dasharray="0 2" transform="rotate(52.52, 400, 400)" opacity="0.15"></path><path d="M377.5 261.62C386.13 268.54 394.57 276.17 402.8 283.65 411.11 289.77 419.33 294.84 427.5 298.74 435.94 300.76 444.56 301.98 453.41 302.79 462.72 302.63 472.43 302.91 482.48 303.97 492.96 305.08 503.65 307.45 514.23 311.12 524.7 315.21 534.49 320.57 543.02 327 550.46 333.75 555.88 341.31 558.76 349.43 559.78 357.65 557.96 366.24 553.27 375.01 547.06 383.78 539.01 392.32 529.89 400.64 520.77 409.09 511.54 417.54 502.71 426.15 494.95 435.2 487.91 444.77 481.64 454.97 476.58 465.87 472.01 477.54 467.7 489.78 464.15 502.31 460.41 514.8 456.27 526.51 452.38 537.07 447.77 545.55 442.33 551.08 436.91 553.92 430.55 553.09 423.26 548.54 415.94 541.87 407.71 532.81 398.63 522.48 389.54 513.31 380.09 505.64 370.45 500.21 360.87 497.94 351.17 497.92 341.55 499.57 332.07 503.19 322.78 506.96 313.91 510.05 305.37 512.99 297.43 514.12 290.37 513.21 283.85 511.18 278.41 507.04 274.26 501.12 270.78 494.28 268.65 486.14 267.97 477.19 267.78 467.82 268.82 458.07 270.98 448.28 273.07 438.41 275.83 428.69 279.06 419.31 281.51 409.93 283.93 401.31 286.22 393.4 287.53 385.38 288.8 377.87 290.13 370.73 290.77 363.2 291.8 355.71 293.33 348.07 294.65 339.72 296.77 330.92 299.76 321.65 302.85 311.66 306.93 301.32 311.91 290.96 317.11 280.67 323.17 271.16 329.96 263.12 336.9 256.52 344.45 252.33 352.44 251.03 360.48 251.85 368.88 255.48 377.5 261.62" stroke-dasharray="10 6" transform="rotate(56.56, 400, 400)" opacity="0.83"></path><path d="M378.87 272.49C386.8 278.95 394.76 286.12 402.68 293.3 410.67 299.43 418.74 304.81 426.89 309.25 435.24 312.1 443.84 314.19 452.65 315.8 461.78 316.36 471.2 317.06 480.79 318.21 490.6 319.11 500.41 320.91 509.89 323.71 519.12 326.69 527.56 330.77 534.74 335.85 540.9 341.13 545.24 347.3 547.37 354.2 547.95 361.16 546.12 368.72 541.84 376.79 536.31 384.85 529.16 393.05 520.98 401.34 512.71 409.75 504.17 418.44 495.79 427.46 488.18 436.8 481.03 446.67 474.45 457.07 468.84 467.83 463.64 479.06 458.73 490.44 454.51 501.69 450.24 512.49 445.76 522.18 439.26 533.76 423.51 541.11 413.88 535.51 407.19 529.19 399.74 520.93 391.56 511.61 383.37 503.25 374.88 496.01 366.26 490.49 357.7 487.54 349.08 486.44 340.59 486.83 332.25 489.08 324.17 491.74 316.55 494.16 305.89 497.63 289.17 496.57 283.79 491.4 281.12 486.73 279.65 480.72 279.41 473.72 279.52 466.34 280.69 458.31 282.81 449.92 284.83 441.43 287.44 432.78 290.49 424.12 292.85 415.47 295.24 407.21 297.56 399.35 299.02 391.38 300.47 383.63 301.97 376.01 302.83 368.07 303.98 360.01 305.53 351.72 306.78 342.94 308.69 333.79 311.29 324.35 313.88 314.55 317.3 304.68 321.52 295.1 325.84 285.88 330.96 277.63 336.78 270.91 342.69 265.58 349.23 262.45 356.3 261.88 363.39 263.07 370.94 266.7 378.87 272.49" stroke-dasharray="4 7" transform="rotate(60.599999999999994, 400, 400)" opacity="0.66"></path><path d="M382.44 283.36C389.71 289.34 397.15 296.01 404.69 302.81 412.28 308.84 420.06 314.36 427.98 319.19 436.04 322.72 444.35 325.61 452.82 328.01 461.48 329.4 470.31 330.74 479.17 332.28 488.07 333.38 496.8 335.08 505.08 337.51 513.02 339.89 520.12 343.17 526.01 347.35 531 351.59 534.38 356.71 535.86 362.63 536.09 368.58 534.28 375.27 530.41 382.67 525.53 390.06 519.23 397.84 511.98 405.92 504.58 414.08 496.8 422.67 489 431.64 481.72 440.78 474.69 450.39 468.04 460.32 462.12 470.34 456.52 480.51 451.19 490.5 446.44 500.09 441.72 508.94 436.92 516.53 430.04 525.07 414.58 528.34 405.61 522.42 399.45 516.53 392.69 509.08 385.36 500.74 378.03 493.18 370.51 486.42 362.93 480.95 355.41 477.51 347.91 475.54 340.6 474.82 333.44 475.77 326.58 477.25 320.21 478.78 304.67 481.82 291.47 473.72 291.1 466.28 291.44 460.67 292.67 454.25 294.72 447.23 296.63 440.12 299.06 432.56 301.91 424.68 304.17 416.81 306.51 408.99 308.82 401.28 310.41 393.49 312.02 385.68 313.68 377.81 314.75 369.73 316.07 361.44 317.69 352.94 318.99 344.15 320.79 335.13 323.16 326.02 325.44 316.84 328.4 307.83 332.04 299.34 335.69 291.39 340.06 284.5 345.09 279.11 350.16 274.99 355.85 272.83 362.1 272.88 368.37 274.38 375.16 277.94 382.44 283.36" stroke-dasharray="0 10" transform="rotate(64.64, 400, 400)" opacity="0.08"></path><path d="M387.82 294.23C394.45 299.71 401.33 305.84 408.38 312.18 415.47 317.98 422.79 323.5 430.26 328.55 437.83 332.58 445.59 336.12 453.45 339.22 461.39 341.44 469.39 343.51 477.28 345.61 485.11 347.2 492.65 349.15 499.67 351.58 509.21 355.3 522.03 366.27 524.24 373.68 524.19 378.87 522.45 384.84 518.98 391.59 514.72 398.34 509.24 405.57 502.89 413.19 496.37 420.85 489.4 428.95 482.29 437.38 475.5 445.86 468.78 454.64 462.29 463.54 456.32 472.34 450.56 481.03 445.01 489.28 439.92 497 434.9 503.84 429.89 509.39 422.71 515.2 407.44 515.25 399.04 509.28 393.33 503.89 387.21 497.26 380.69 489.87 374.17 483.11 367.58 476.89 361.04 471.58 354.54 467.84 348.15 465.21 342.01 463.57 333.15 463.52 317.99 465.89 312.17 466.53 305.25 463.66 304.15 448.64 306.69 440.31 308.46 434.44 310.7 427.94 313.34 420.89 315.48 413.84 317.73 406.59 320.01 399.22 321.68 391.81 323.42 384.21 325.22 376.46 326.5 368.59 327.99 360.5 329.72 352.27 331.12 343.94 332.93 335.52 335.19 327.18 337.29 318.99 339.95 311.14 343.19 303.96 348.28 294.64 361.48 284.14 369.53 284.06 375.08 285.78 381.18 289.22 387.82 294.23" stroke-dasharray="4 2" transform="rotate(68.68, 400, 400)" opacity="0.47"></path><path d="M394.47 305.1C406.45 315.11 419.56 326.57 433.15 337.32 446.92 345.16 461.17 351.76 474.83 357.67 487.97 361.64 499.35 366.75 507.18 373.79 512.56 380.46 512.95 389.81 507.56 402 499.7 414.19 488.34 428.23 475.59 443.17 463.51 457.98 451.44 472.99 440.08 486.22 430.04 497.3 420.04 504.09 409.91 504.58 400.19 501.21 389.53 492.06 378.02 479 366.5 467.88 355.26 458.89 345.08 453.11 331.16 451.79 315.37 449.64 315.2 442.03 316.31 435.48 319.63 425.8 324.76 413.41 328.28 401.01 332.31 387.22 336.54 372.76 339.05 358.21 342.48 343.01 347.11 328.42 351.06 314.87 356.93 303.69 364.81 297 372.55 293.87 382.47 296.57 394.47 305.1" stroke-dasharray="8 4" transform="rotate(72.72, 400, 400)" opacity="0.08"></path><path d="M401.69 315.97C412.36 324.88 424.01 335.3 436 345.52 448.02 353.76 460.21 361.22 471.56 368.05 482.29 373.24 491.26 379.04 497.09 386.05 501.03 392.63 500.91 401.23 496.14 412.06 489.51 422.88 479.88 435.01 468.85 447.51 458.08 459.68 446.95 471.37 436.21 480.94 426.33 488.65 416.52 492.52 406.83 491.34 397.48 487.56 387.69 479.38 377.63 468.13 367.56 458.35 358.16 449.79 349.98 443.41 338.85 439.5 327.14 434.29 327.56 427.63 328.66 422.31 331.62 414.25 336.19 403.57 339.48 392.88 343.39 380.7 347.61 367.89 350.47 355.23 354.12 342.29 358.72 330.34 362.66 319.58 368.14 311.21 375.25 306.81 382.19 305.16 391.01 308.21 401.69 315.97" stroke-dasharray="2 5" transform="rotate(76.76, 400, 400)" opacity="0.77"></path><path d="M408.73 326.84C418.03 334.61 428.06 343.82 438.19 353.19 448.28 361.34 458.26 369.14 467.25 376.46 475.68 382.57 482.45 388.97 486.57 396 489.32 402.64 488.84 410.59 484.71 419.98 479.24 429.37 471.28 439.35 462 449.12 452.73 458.54 442.88 466.99 433.15 473.28 423.93 478.16 414.71 479.84 405.76 477.64 397.04 473.83 388.22 466.74 379.56 457.27 370.89 448.85 363.14 440.97 356.68 434.44 347.92 428.68 339.35 420.19 340.07 413.71 341.08 408.97 343.64 402.11 347.61 393.09 350.62 384.07 354.32 373.84 358.41 363.22 361.47 352.85 365.25 342.56 369.78 333.47 373.75 325.48 378.92 319.7 385.36 317.22 391.63 316.73 399.43 319.94 408.73 326.84" stroke-dasharray="9 11" transform="rotate(80.80000000000001, 400, 400)" opacity="0.07"></path><path d="M414.87 337.71C422.73 344.28 431 352.15 439.16 360.39 447.24 367.97 455 375.53 461.77 382.8 468.07 389.3 472.93 395.92 475.65 402.75 477.44 409.29 476.75 416.51 473.29 424.39 468.91 432.26 462.53 440.04 454.99 447.16 447.35 454 439.03 459.62 430.63 463.27 422.49 466 414.29 466.21 406.37 463.57 398.59 460.06 390.9 454.15 383.61 446.4 376.31 439.37 370.05 432.41 365.01 426.15 358.2 419.37 351.94 408.27 352.7 401.69 353.55 397.18 355.68 391.24 359.04 383.83 361.7 376.42 365.08 368.29 368.9 360.1 372 352.17 375.75 344.61 380.1 338.28 386.43 331.02 403.62 330.18 414.87 337.71" stroke-dasharray="5 1" transform="rotate(84.84, 400, 400)" opacity="0.25"></path><path d="M419.46 348.58C432.18 359.34 445.19 373.56 455.02 387.15 463.57 399.15 466.78 411.89 461.86 424.49 454.68 437.08 442.03 447.06 428.37 451.16 415.06 453.29 401.2 447.82 389.36 435.53 377.51 425.05 369.6 414.27 366.52 404.97 363.38 398.12 364.65 389.17 370.46 377.43 374.45 365.68 381.24 353.49 389.48 345.08 396.58 338.87 406.74 339.39 419.46 348.58" stroke-dasharray="0 1" transform="rotate(88.88, 400, 400)" opacity="0.35"></path><path d="M422.04 359.44C431.63 367.64 440.69 378.76 447 389.76 452.58 400.16 454.29 410.88 450.44 420.27 445.34 429.66 436.21 435.82 426.06 437.38 415.94 438.11 405.24 433.7 396.21 424.66 387.18 416.62 381.33 407.46 379.11 399.02 376.69 391.89 377.54 383.77 381.89 375 385.17 366.23 390.92 358.46 397.83 354 404.1 350.69 412.44 352.17 422.04 359.44" stroke-dasharray="4 7" transform="rotate(92.92, 400, 400)" opacity="0.46"></path><path d="M422.33 370.31C435.13 381.46 443.7 400.09 439.01 412.48 432.17 424.86 415.71 425.7 403.46 413.79 391.2 403.63 387.16 388.71 393.31 376.98 397.53 365.24 409.52 360.8 422.33 370.31" stroke-dasharray="2 9" transform="rotate(96.96, 400, 400)" opacity="0.97"></path></g></svg>