<svg xmlns="http://www.w3.org/2000/svg" version="1.1" xmlns:xlink="http://www.w3.org/1999/xlink" xmlns:svgjs="http://svgjs.dev/svgjs" viewBox="0 0 800 800"><defs><linearGradient x1="50%" y1="0%" x2="50%" y2="100%" id="ccchaos-grad"><stop stop-color="hsl(206, 75%, 49%)" stop-opacity="1" offset="0%"></stop><stop stop-color="hsl(331, 90%, 56%)" stop-opacity="1" offset="100%"></stop></linearGradient></defs><g stroke-width="2" stroke="url(#ccchaos-grad)" fill="none" stroke-linecap="round"><path d="M379.23 111.6C388.61 109.4 397.96 107.83 407.26 106.91 416.57 106.19 425.86 106.18 435.11 106.9 444.39 107.89 453.68 109.64 462.95 112.1 472.3 114.87 481.69 118.35 491.11 122.5 500.65 126.93 510.26 131.99 519.95 137.62 529.78 143.47 539.7 149.83 549.7 156.65 559.85 163.6 570.07 170.95 580.3 178.65 590.62 186.39 600.9 194.43 611.06 202.71 621.19 210.99 631.07 219.47 640.6 228.12 649.9 236.73 658.66 245.49 666.77 254.38 674.4 263.21 681.19 272.16 687 281.23 692.12 290.23 696.12 299.36 698.91 308.6 700.91 317.78 701.66 327.1 701.15 336.54 699.93 345.94 697.57 355.49 694.14 365.18 690.31 374.84 685.68 384.66 680.41 394.62 675.23 404.58 669.76 414.68 664.2 424.93 659.27 435.17 654.68 445.3 650.54 455.3 647.35 465.29 644.72 475.13 642.65 484.78 641.54 494.4 640.91 503.81 640.67 512.96 641.17 522.04 641.84 530.82 642.55 539.24 643.66 547.56 644.56 555.47 645.1 562.91 645.71 570.21 645.75 577 645.14 583.22 643.53 591.98 635.76 606.14 629.53 611.5 624.72 614.71 619.13 617.33 612.81 619.39 606.16 621.41 598.86 622.98 590.99 624.14 582.88 625.45 574.29 626.51 565.31 627.4 556.18 628.67 546.73 629.94 537.03 631.3 527.26 633.25 517.31 635.44 507.23 637.91 497.12 641.12 486.92 644.67 476.68 648.57 466.43 653.19 456.16 658.1 445.89 663.21 435.63 668.85 425.38 674.5 415.15 680.01 404.92 685.67 394.94 690.77 385.23 695.17 375.51 699.31 366.02 702.5 356.79 704.68 347.51 706.29 338.46 706.74 329.64 706.03 320.75 704.62 312.06 702.04 303.58 698.35 295.01 693.99 286.62 688.62 278.42 682.33 270.11 675.54 261.96 667.98 253.99 659.77 245.91 651.26 237.99 642.27 230.25 632.9 222.4 623.41 214.74 613.68 207.28 603.8 199.74 593.94 192.43 584.01 185.38 574.06 178.3 564.22 171.51 554.4 165.05 544.63 158.62 535 152.56 525.41 146.92 515.88 141.38 506.48 136.29 497.1 131.7 487.75 127.26 478.5 123.36 469.25 120.02 459.98 116.88 450.77 114.31 441.52 112.37 432.23 110.62 422.97 109.49 413.63 108.99 404.24 108.67 394.86 108.96 385.4 109.89 375.89 110.94 366.37 112.55 357.02 114.68 347.86 116.86 338.7 119.5 329.73 122.56 320.99 125.59 312.26 129 303.77 132.74 295.55 136.37 287.35 140.31 279.44 144.51 271.84 148.55 264.28 152.85 257.05 157.37 250.17 161.7 243.32 166.26 236.83 171.03 230.72 175.62 224.64 180.43 218.92 185.46 213.58 190.34 208.23 195.47 203.24 200.84 198.6 206.09 193.9 211.62 189.51 217.43 185.44 223.16 181.23 229.2 177.29 235.52 173.59 241.82 169.69 248.43 165.99 255.34 162.47 262.24 158.69 269.45 155.05 276.95 151.56 284.45 147.78 292.25 144.13 300.31 140.63 308.38 136.84 316.71 133.22 325.27 129.8 333.84 126.18 342.64 122.81 351.64 119.75 360.63 116.61 369.83 113.87 379.22 111.6" stroke-dasharray="7 5" transform="rotate(0, 400, 400)" opacity="0.68"></path><path d="M381.23 122.53C390.29 120.35 399.36 118.78 408.41 117.83 417.48 117.05 426.55 116.97 435.61 117.57 444.72 118.43 453.84 120 462.98 122.26 472.19 124.8 481.45 128.04 490.76 131.91 500.16 136.05 509.64 140.81 519.18 146.12 528.84 151.64 538.57 157.68 548.34 164.17 558.21 170.8 568.11 177.83 577.98 185.21 587.89 192.66 597.71 200.41 607.35 208.41 616.9 216.43 626.17 224.66 635.03 233.08 643.63 241.46 651.69 250.01 659.06 258.69 665.98 267.33 672.06 276.1 677.2 284.97 681.7 293.79 685.14 302.74 687.45 311.78 689.06 320.78 689.52 329.89 688.81 339.11 687.5 348.3 685.15 357.62 681.82 367.04 678.17 376.44 673.79 385.97 668.81 395.61 663.94 405.24 658.79 414.99 653.54 424.84 648.86 434.68 644.46 444.39 640.45 453.93 637.29 463.47 634.61 472.82 632.43 481.95 631.12 491.06 630.23 499.93 629.7 508.51 629.87 517.03 630.2 525.23 630.59 533.07 631.4 540.8 632.04 548.13 632.39 555 632.85 564.85 630.88 581.72 628.08 588.63 624.12 594.73 611.92 603.96 603.78 607.21 597.82 609.23 591.23 610.85 584.08 612.14 576.7 613.61 568.83 614.87 560.55 616.01 552.11 617.52 543.33 619.06 534.27 620.68 525.12 622.86 515.76 625.26 506.22 627.9 496.66 631.22 486.97 634.84 477.19 638.75 467.41 643.3 457.56 648.09 447.68 653.03 437.81 658.44 427.91 663.84 418.01 669.08 408.11 674.45 398.43 679.3 388.99 683.49 379.53 687.45 370.28 690.55 361.26 692.7 352.2 694.35 343.34 694.94 334.68 694.45 325.97 693.33 317.44 691.13 309.09 687.88 300.67 684.03 292.42 679.2 284.33 673.5 276.16 667.32 268.13 660.37 260.28 652.79 252.33 644.89 244.53 636.48 236.92 627.67 229.22 618.71 221.7 609.47 214.38 600.03 207.02 590.57 199.87 581 192.99 571.37 186.1 561.81 179.49 552.24 173.21 542.68 166.98 533.23 161.12 523.81 155.67 514.43 150.32 505.15 145.42 495.91 141 486.69 136.74 477.57 133 468.45 129.82 459.34 126.82 450.28 124.39 441.21 122.56 432.13 120.93 423.07 119.89 413.98 119.47 404.86 119.23 395.75 119.58 386.6 120.55 377.43 121.64 368.26 123.28 359.28 125.41 350.51 127.59 341.74 130.23 333.18 133.27 324.86 136.28 316.54 139.65 308.48 143.35 300.69 146.94 292.91 150.83 285.42 154.98 278.24 158.97 271.08 163.21 264.24 167.66 257.74 171.93 251.25 176.42 245.11 181.1 239.32 185.61 233.53 190.33 228.09 195.26 222.99 200.03 217.87 205.03 213.07 210.25 208.6 215.36 204.05 220.71 199.78 226.32 195.79 231.85 191.66 237.65 187.77 243.73 184.1 249.76 180.23 256.08 176.53 262.69 173.01 269.27 169.24 276.15 165.6 283.3 162.1 290.45 158.33 297.87 154.69 305.57 151.19 313.25 147.44 321.2 143.85 329.4 140.47 337.58 136.89 346.01 133.57 354.65 130.56 363.29 127.47 372.15 124.77 381.22 122.54" stroke-dasharray="1 9" transform="rotate(4.04, 400, 400)" opacity="0.15"></path><path d="M383.91 133.46C392.67 131.31 401.46 129.74 410.26 128.75 419.07 127.94 427.92 127.78 436.78 128.26 445.68 128.99 454.61 130.4 463.58 132.46 472.62 134.79 481.71 137.77 490.84 141.37 500.06 145.23 509.34 149.67 518.66 154.66 528.08 159.86 537.54 165.56 547 171.7 556.54 178 566.05 184.69 575.49 191.73 584.93 198.86 594.22 206.3 603.29 213.99 612.24 221.72 620.86 229.67 629.05 237.81 636.96 245.94 644.3 254.25 650.97 262.68 657.19 271.09 662.6 279.63 667.1 288.28 671.03 296.89 673.96 305.62 675.84 314.43 677.1 323.21 677.3 332.1 676.44 341.07 675.07 350.02 672.74 359.07 669.53 368.21 666.06 377.33 661.92 386.55 657.24 395.85 652.67 405.15 647.84 414.53 642.88 423.97 638.45 433.41 634.24 442.69 630.36 451.77 627.25 460.84 624.54 469.71 622.26 478.34 620.78 486.94 619.66 495.28 618.86 503.31 618.72 511.3 618.74 518.95 618.83 526.22 619.33 533.41 619.7 540.2 619.85 546.54 620.1 555.64 618.21 571.17 615.71 577.54 612.24 583.22 601.45 591.96 594.18 595.17 588.85 597.22 582.92 598.93 576.44 600.36 569.75 602 562.57 603.47 554.96 604.84 547.2 606.59 539.08 608.37 530.65 610.23 522.14 612.62 513.37 615.2 504.4 617.99 495.39 621.39 486.22 625.05 476.93 628.95 467.63 633.42 458.23 638.08 448.77 642.85 439.3 648.03 429.78 653.17 420.23 658.14 410.67 663.25 401.31 667.84 392.14 671.82 382.96 675.61 373.97 678.6 365.17 680.71 356.34 682.39 347.68 683.09 339.21 682.8 330.69 681.95 322.33 680.09 314.13 677.26 305.88 673.87 297.77 669.57 289.82 664.42 281.79 658.82 273.91 652.49 266.19 645.51 258.4 638.22 250.75 630.41 243.28 622.18 235.75 613.77 228.4 605.05 221.25 596.1 214.07 587.1 207.12 577.94 200.42 568.68 193.73 559.46 187.33 550.19 181.26 540.91 175.24 531.71 169.59 522.5 164.34 513.33 159.2 504.24 154.5 495.18 150.27 486.14 146.2 477.18 142.63 468.24 139.61 459.32 136.76 450.45 134.47 441.58 132.77 432.71 131.25 423.88 130.31 415.04 129.97 406.2 129.8 397.37 130.21 388.52 131.21 379.69 132.33 370.85 133.98 362.23 136.12 353.83 138.3 345.43 140.92 337.26 143.93 329.33 146.91 321.41 150.25 313.74 153.89 306.35 157.45 298.96 161.29 291.86 165.37 285.06 169.32 278.27 173.49 271.78 177.87 265.62 182.09 259.46 186.51 253.63 191.12 248.12 195.56 242.6 200.19 237.4 205.02 232.52 209.7 227.59 214.59 222.96 219.68 218.62 224.65 214.19 229.86 210.02 235.3 206.1 240.64 202.04 246.24 198.18 252.1 194.53 257.89 190.68 263.96 187 270.29 183.47 276.59 179.7 283.17 176.07 290.01 172.57 296.83 168.81 303.93 165.18 311.28 161.7 318.62 157.99 326.22 154.44 334.06 151.1 341.9 147.58 349.98 144.32 358.29 141.36 366.6 138.33 375.13 135.67 383.9 133.47" stroke-dasharray="11 2" transform="rotate(8.08, 400, 400)" opacity="0.41"></path><path d="M387.16 144.39C395.62 142.27 404.13 140.7 412.68 139.7 421.23 138.85 429.84 138.61 438.47 139 447.14 139.6 455.86 140.84 464.62 142.71 473.43 144.83 482.3 147.57 491.21 150.89 500.18 154.47 509.2 158.6 518.25 163.26 527.36 168.13 536.48 173.48 545.58 179.27 554.71 185.22 563.78 191.56 572.73 198.25 581.65 205.03 590.38 212.13 598.84 219.49 607.16 226.9 615.12 234.54 622.62 242.37 629.84 250.22 636.49 258.24 642.47 266.39 648.02 274.54 652.8 282.82 656.73 291.21 660.12 299.57 662.59 308.04 664.08 316.6 665.03 325.13 665.02 333.76 664.04 342.45 662.62 351.14 660.34 359.9 657.27 368.73 653.98 377.55 650.08 386.44 645.69 395.38 641.42 404.33 636.88 413.32 632.22 422.35 628.03 431.38 624.01 440.21 620.27 448.84 617.21 457.45 614.5 465.84 612.14 473.97 610.51 482.08 609.2 489.91 608.16 497.42 607.73 504.89 607.46 512.02 607.25 518.78 607.51 528.61 607.5 546.04 606.77 553.54 605.55 560.42 600.17 571.68 595.84 576.11 590.57 580.09 576.65 586.32 568.12 588.82 562.07 590.63 555.53 592.3 548.57 593.9 541.46 595.87 533.98 597.87 526.18 599.95 518.28 602.52 510.11 605.25 501.71 608.17 493.27 611.63 484.63 615.3 475.84 619.17 467.03 623.55 458.1 628.07 449.06 632.65 440.03 637.61 430.91 642.5 421.72 647.21 412.53 652.04 403.5 656.39 394.63 660.17 385.75 663.78 377.03 666.65 368.47 668.72 359.88 670.41 351.45 671.2 343.17 671.08 334.86 670.47 326.69 668.92 318.67 666.47 310.6 663.52 302.66 659.7 294.86 655.1 287.02 650.06 279.3 644.31 271.74 637.94 264.12 631.25 256.65 624.04 249.35 616.39 242.02 608.56 234.85 600.39 227.9 591.95 220.93 583.44 214.18 574.74 207.7 565.9 201.23 557.08 195.05 548.16 189.2 539.21 183.42 530.31 177.99 521.39 172.95 512.48 168.04 503.64 163.54 494.8 159.52 485.99 155.65 477.24 152.26 468.51 149.4 459.81 146.72 451.16 144.57 442.51 142.99 433.9 141.58 425.31 140.74 416.72 140.48 408.17 140.38 399.62 140.84 391.08 141.87 382.58 143.02 374.08 144.68 365.8 146.81 357.75 148.98 349.71 151.57 341.9 154.54 334.35 157.49 326.79 160.78 319.5 164.37 312.47 167.88 305.45 171.66 298.7 175.69 292.25 179.58 285.79 183.7 279.63 188.01 273.78 192.17 267.91 196.53 262.34 201.06 257.09 205.43 251.8 209.99 246.81 214.74 242.1 219.33 237.35 224.12 232.85 229.1 228.63 233.95 224.3 239.02 220.21 244.31 216.35 249.5 212.34 254.92 208.51 260.58 204.88 266.17 201.05 272.01 197.37 278.1 193.84 284.15 190.08 290.45 186.45 297.01 182.95 303.54 179.22 310.34 175.61 317.38 172.16 324.4 168.49 331.68 164.99 339.21 161.69 346.72 158.24 354.47 155.04 362.47 152.14 370.46 149.17 378.68 146.57 387.15 144.4" stroke-dasharray="4 3" transform="rotate(12.12, 400, 400)" opacity="0.85"></path><path d="M390.87 155.33C399.04 153.24 407.27 151.68 415.55 150.66 423.83 149.77 432.18 149.48 440.56 149.76 448.97 150.24 457.44 151.33 465.95 153.01 474.5 154.92 483.1 157.42 491.72 160.48 500.4 163.77 509.1 167.6 517.81 171.93 526.55 176.46 535.28 181.47 543.95 186.89 552.63 192.48 561.2 198.46 569.62 204.77 577.98 211.2 586.11 217.94 593.95 224.94 601.63 232 608.92 239.3 615.74 246.8 622.28 254.32 628.26 262.03 633.58 269.87 638.51 277.72 642.7 285.71 646.08 293.79 648.99 301.88 651.04 310.06 652.2 318.32 652.88 326.57 652.68 334.91 651.62 343.3 650.18 351.69 647.97 360.14 645.03 368.63 641.93 377.13 638.28 385.67 634.17 394.25 630.18 402.82 625.94 411.42 621.56 420.03 617.6 428.63 613.79 437.03 610.18 445.2 607.19 453.36 604.48 461.28 602.07 468.93 600.32 476.56 598.83 483.9 597.58 490.92 596.9 497.91 596.35 504.56 595.87 510.84 595.72 519.98 595.08 536.16 594.2 543.13 592.97 549.56 588 560.19 584.1 564.47 579.39 568.39 566.89 574.82 559.19 577.54 553.73 579.52 547.79 581.39 541.43 583.21 534.94 585.37 528.07 587.57 520.87 589.84 513.58 592.56 505.99 595.42 498.15 598.43 490.27 601.93 482.17 605.6 473.89 609.41 465.58 613.68 457.12 618.05 448.54 622.45 439.94 627.18 431.24 631.82 422.43 636.28 413.63 640.85 404.95 644.95 396.39 648.53 387.83 651.96 379.4 654.7 371.1 656.72 362.78 658.41 354.59 659.27 346.54 659.3 338.46 658.9 330.5 657.64 322.67 655.54 314.81 652.99 307.06 649.63 299.45 645.52 291.81 641.02 284.28 635.84 276.91 630.05 269.49 623.96 262.23 617.34 255.13 610.29 248.01 603.04 241.06 595.43 234.32 587.53 227.59 579.54 221.07 571.33 214.82 562.97 208.6 554.57 202.66 546.07 197.05 537.5 191.51 528.96 186.32 520.37 181.52 511.77 176.84 503.22 172.57 494.66 168.75 486.13 165.08 477.64 161.89 469.16 159.2 460.72 156.68 452.31 154.68 443.93 153.22 435.58 151.94 427.25 151.19 418.94 151 410.68 150.97 402.42 151.47 394.2 152.53 386.02 153.7 377.84 155.36 369.9 157.47 362.2 159.62 354.5 162.18 347.03 165.11 339.83 168.02 332.62 171.26 325.67 174.79 318.98 178.24 312.29 181.96 305.87 185.92 299.73 189.75 293.58 193.8 287.7 198.05 282.12 202.15 276.51 206.44 271.19 210.9 266.15 215.21 261.06 219.7 256.25 224.36 251.7 228.88 247.09 233.57 242.71 238.45 238.58 243.21 234.35 248.16 230.32 253.31 226.5 258.36 222.53 263.63 218.74 269.11 215.11 274.52 211.3 280.16 207.63 286.04 204.1 291.86 200.36 297.92 196.74 304.23 193.25 310.5 189.55 317.02 185.97 323.78 182.55 330.51 178.94 337.5 175.49 344.72 172.25 351.93 168.87 359.39 165.74 367.08 162.9 374.76 160 382.69 157.46 390.86 155.33" stroke-dasharray="5 4" transform="rotate(16.16, 400, 400)" opacity="0.40"></path><path d="M394.91 166.26C402.79 164.21 410.73 162.67 418.72 161.63 426.72 160.72 434.78 160.37 442.89 160.55 451.01 160.93 459.19 161.87 467.41 163.37 475.65 165.08 483.93 167.35 492.23 170.14 500.56 173.15 508.9 176.68 517.21 180.69 525.54 184.88 533.82 189.53 542.01 194.59 550.18 199.81 558.23 205.41 566.08 211.35 573.85 217.4 581.37 223.76 588.57 230.38 595.59 237.07 602.23 244.01 608.39 251.14 614.27 258.32 619.6 265.67 624.31 273.17 628.65 280.69 632.29 288.35 635.18 296.11 637.64 303.87 639.33 311.73 640.19 319.67 640.64 327.61 640.31 335.62 639.18 343.68 637.74 351.74 635.61 359.86 632.83 368 629.92 376.15 626.51 384.32 622.67 392.51 618.96 400.7 615 408.9 610.9 417.07 607.18 425.25 603.55 433.21 600.1 440.93 597.18 448.64 594.49 456.11 592.05 463.29 590.19 470.46 588.56 477.34 587.13 483.91 586.22 490.44 585.42 496.64 584.69 502.49 584.14 511.01 582.87 526.09 581.8 532.61 578.15 543.74 567.96 556.91 562.69 560.27 556.7 563.58 542.1 569.7 533.6 572.74 527.69 575.09 521.39 577.46 514.76 579.9 508.05 582.74 501.03 585.69 493.74 588.77 486.41 592.28 478.84 595.92 471.07 599.67 463.27 603.82 455.29 608.04 447.16 612.25 439.02 616.74 430.74 621.14 422.34 625.35 413.94 629.65 405.63 633.52 397.41 636.89 389.19 640.14 381.06 642.77 373.05 644.72 365.03 646.39 357.1 647.31 349.3 647.47 341.47 647.25 333.75 646.24 326.14 644.46 318.51 642.27 310.99 639.34 303.6 635.71 296.18 631.71 288.88 627.07 281.72 621.84 274.54 616.33 267.5 610.3 260.63 603.83 253.75 597.17 247.05 590.13 240.55 582.8 234.07 575.35 227.81 567.66 221.81 559.79 215.86 551.87 210.18 543.82 204.82 535.67 199.55 527.53 194.61 519.32 190.05 511.09 185.62 502.88 181.58 494.65 177.98 486.43 174.52 478.24 171.53 470.06 169.01 461.91 166.66 453.79 164.81 445.69 163.48 437.63 162.31 429.58 161.66 421.57 161.54 413.61 161.57 405.66 162.12 397.75 163.19 389.9 164.37 382.04 166.03 374.43 168.11 367.06 170.24 359.69 172.76 352.56 175.63 345.68 178.49 338.8 181.67 332.16 185.13 325.79 188.52 319.41 192.18 313.28 196.05 307.42 199.83 301.55 203.81 295.93 207.98 290.59 212.02 285.22 216.25 280.1 220.63 275.25 224.88 270.34 229.3 265.68 233.88 261.27 238.32 256.78 242.94 252.51 247.72 248.45 252.38 244.29 257.22 240.32 262.25 236.53 267.18 232.6 272.31 228.83 277.64 225.22 282.88 221.43 288.35 217.77 294.03 214.25 299.65 210.53 305.5 206.93 311.58 203.46 317.61 199.8 323.88 196.26 330.38 192.88 336.85 189.33 343.56 185.95 350.51 182.77 357.43 179.47 364.6 176.42 372 173.65 379.39 170.83 387.03 168.35 394.9 166.26" stroke-dasharray="8 1" transform="rotate(20.200000000000003, 400, 400)" opacity="0.30"></path><path d="M399.14 177.19C406.71 175.19 414.36 173.67 422.05 172.62 429.75 171.69 437.5 171.28 445.3 171.38 453.11 171.65 460.97 172.46 468.85 173.78 476.75 175.3 484.67 177.34 492.59 179.88 500.53 182.62 508.45 185.85 516.32 189.53 524.19 193.39 531.99 197.69 539.66 202.39 547.3 207.23 554.78 212.45 562.05 217.99 569.21 223.65 576.11 229.62 582.67 235.84 589.05 242.15 595.04 248.7 600.56 255.45 605.82 262.25 610.54 269.23 614.66 276.35 618.46 283.51 621.6 290.81 624.04 298.21 626.12 305.62 627.47 313.13 628.08 320.72 628.35 328.31 627.9 335.97 626.74 343.67 625.33 351.38 623.28 359.13 620.66 366.9 617.94 374.68 614.76 382.47 611.2 390.26 607.75 398.05 604.08 405.84 600.24 413.59 596.75 421.33 593.31 428.86 590.01 436.14 587.18 443.41 584.52 450.43 582.07 457.18 580.14 463.91 578.38 470.36 576.8 476.5 575.17 485.5 572.79 501.83 571.74 509.09 569.55 521.89 563.62 537.63 560.29 541.75 556.39 545.7 546.16 552.64 539.84 555.81 532.92 559.22 516.91 566.28 507.94 570.11 501.77 573.05 495.29 576.07 488.53 579.19 481.74 582.69 474.68 586.29 467.41 589.95 460.12 593.97 452.62 598.02 444.95 602.04 437.27 606.3 429.43 610.46 421.45 614.42 413.47 618.47 405.53 622.1 397.67 625.27 389.81 628.35 382.02 630.84 374.31 632.72 366.6 634.37 358.97 635.33 351.44 635.59 343.9 635.52 336.44 634.74 329.09 633.24 321.72 631.39 314.46 628.85 307.31 625.66 300.14 622.14 293.09 618 286.18 613.31 279.26 608.36 272.48 602.9 265.87 597.01 259.26 590.92 252.83 584.47 246.6 577.7 240.4 570.8 234.42 563.65 228.69 556.3 223.02 548.89 217.62 541.32 212.53 533.64 207.54 525.94 202.87 518.15 198.56 510.32 194.38 502.49 190.59 494.63 187.21 486.77 183.97 478.92 181.18 471.08 178.84 463.25 176.67 455.45 174.96 447.66 173.75 439.92 172.7 432.19 172.14 424.49 172.09 416.85 172.18 409.21 172.76 401.62 173.85 394.09 175.04 386.56 176.68 379.27 178.73 372.23 180.83 365.17 183.3 358.36 186.1 351.79 188.91 345.21 192.02 338.88 195.4 332.79 198.72 326.69 202.3 320.84 206.1 315.24 209.8 309.61 213.71 304.23 217.8 299.1 221.77 293.93 225.92 289 230.23 284.31 234.41 279.57 238.76 275.04 243.25 270.74 247.62 266.36 252.16 262.17 256.84 258.19 261.42 254.09 266.17 250.17 271.08 246.42 275.9 242.53 280.9 238.78 286.08 235.18 291.19 231.42 296.49 227.78 301.99 224.27 307.43 220.59 313.09 217.02 318.95 213.58 324.77 209.96 330.81 206.48 337.07 203.16 343.3 199.68 349.75 196.37 356.43 193.26 363.09 190.05 369.98 187.07 377.1 184.38 384.2 181.64 391.55 179.23 399.13 177.19" stroke-dasharray="6 8" transform="rotate(24.24, 400, 400)" opacity="0.90"></path><path d="M403.39 188.12C410.66 186.17 417.99 184.67 425.37 183.63 432.75 182.69 440.17 182.23 447.63 182.25 455.1 182.42 462.6 183.09 470.11 184.26 477.63 185.59 485.16 187.41 492.66 189.71 500.16 192.18 507.63 195.12 515.03 198.48 522.4 202.02 529.68 205.96 536.82 210.29 543.89 214.76 550.79 219.59 557.46 224.74 564.02 230.01 570.29 235.57 576.23 241.39 581.99 247.29 587.35 253.43 592.25 259.77 596.92 266.17 601.07 272.75 604.66 279.49 607.95 286.26 610.64 293.16 612.69 300.17 614.42 307.21 615.49 314.34 615.89 321.54 616 328.76 615.47 336.04 614.3 343.36 612.92 350.69 610.99 358.06 608.53 365.44 606 372.83 603.05 380.22 599.75 387.6 596.57 394.99 593.15 402.35 589.58 409.67 586.31 416.99 583.07 424.08 579.92 430.93 577.18 437.78 574.58 444.37 572.14 450.7 570.14 457.02 568.3 463.05 566.59 468.8 564.69 477.23 561.66 492.52 560.3 499.35 557.63 511.48 551.54 526.68 548.38 530.79 544.76 534.79 535.38 542.01 529.62 545.39 523.32 549.01 508.71 556.48 500.47 560.48 494.81 563.48 488.84 566.55 482.59 569.68 476.31 573.15 469.76 576.68 462.98 580.25 456.18 584.12 449.16 587.99 441.95 591.82 434.74 595.85 427.34 599.77 419.79 603.49 412.23 607.29 404.7 610.69 397.22 613.67 389.73 616.56 382.3 618.92 374.92 620.73 367.55 622.33 360.24 623.31 353.01 623.66 345.77 623.73 338.61 623.13 331.54 621.9 324.47 620.35 317.49 618.17 310.62 615.38 303.74 612.3 296.97 608.65 290.34 604.47 283.71 600.04 277.21 595.13 270.88 589.8 264.57 584.29 258.43 578.4 252.5 572.19 246.6 565.86 240.92 559.27 235.48 552.45 230.12 545.57 225.01 538.51 220.21 531.31 215.5 524.09 211.11 516.75 207.07 509.36 203.15 501.95 199.6 494.5 196.45 487.03 193.44 479.56 190.85 472.08 188.7 464.62 186.69 457.16 185.14 449.72 184.05 442.31 183.12 434.92 182.65 427.55 182.66 420.24 182.8 412.93 183.42 405.67 184.51 398.47 185.7 391.27 187.32 384.31 189.33 377.57 191.38 370.83 193.8 364.32 196.54 358.05 199.27 351.77 202.3 345.71 205.6 339.89 208.85 334.06 212.34 328.46 216.04 323.09 219.67 317.69 223.49 312.52 227.49 307.58 231.39 302.6 235.46 297.84 239.68 293.29 243.79 288.69 248.06 284.28 252.47 280.08 256.77 275.79 261.22 271.69 265.81 267.76 270.3 263.73 274.95 259.86 279.75 256.14 284.46 252.29 289.34 248.57 294.39 244.99 299.36 241.26 304.52 237.65 309.86 234.17 315.13 230.53 320.61 227 326.27 223.6 331.89 220.05 337.72 216.63 343.75 213.36 349.74 209.97 355.96 206.74 362.38 203.71 368.78 200.6 375.4 197.71 382.23 195.09 389.06 192.44 396.11 190.1 403.38 188.12" stroke-dasharray="4 3" transform="rotate(28.28, 400, 400)" opacity="0.18"></path><path d="M407.52 199.05C414.48 197.16 421.49 195.69 428.52 194.65 435.56 193.7 442.64 193.2 449.73 193.15 456.83 193.23 463.95 193.78 471.06 194.79 478.17 195.95 485.26 197.56 492.31 199.62 499.36 201.84 506.34 204.49 513.23 207.55 520.09 210.76 526.83 214.36 533.4 218.33 539.91 222.43 546.23 226.87 552.29 231.62 558.25 236.48 563.91 241.63 569.24 247.03 574.39 252.52 579.16 258.24 583.49 264.16 587.6 270.14 591.23 276.31 594.32 282.63 597.16 288.98 599.45 295.48 601.14 302.08 602.57 308.71 603.4 315.44 603.63 322.24 603.62 329.06 603.03 335.94 601.87 342.86 600.55 349.79 598.73 356.75 596.43 363.72 594.09 370.7 591.38 377.69 588.33 384.65 585.4 391.62 582.24 398.56 578.92 405.45 575.87 412.34 572.82 419.01 569.82 425.45 567.19 431.88 564.66 438.06 562.23 444 559.25 452.74 554.36 468.87 552.33 476.21 550.77 483.24 547.7 495.82 545.99 501.39 541.95 511.36 533.16 524.22 529.04 527.93 524.47 531.71 513.41 539.08 506.95 542.79 502.46 545.52 497.63 548.25 492.49 551 487.29 554.04 481.8 557.12 476.03 560.23 470.22 563.65 464.16 567.09 457.85 570.55 451.53 574.27 444.98 577.96 438.24 581.59 431.48 585.4 424.53 589.08 417.42 592.56 410.3 596.11 403.18 599.29 396.09 602.07 389 604.79 381.93 607.02 374.92 608.74 367.91 610.29 360.94 611.28 354.04 611.69 347.14 611.87 340.3 611.45 333.55 610.44 326.8 609.16 320.13 607.3 313.56 604.89 307 602.21 300.55 599 294.22 595.3 287.91 591.38 281.73 587 275.71 582.21 269.72 577.24 263.9 571.91 258.28 566.27 252.7 560.5 247.34 554.46 242.22 548.19 237.16 541.84 232.37 535.3 227.87 528.61 223.46 521.89 219.35 515.04 215.59 508.1 211.94 501.15 208.64 494.14 205.73 487.08 202.94 480.03 200.55 472.95 198.58 465.87 196.75 458.8 195.34 451.72 194.38 444.68 193.55 437.64 193.17 430.62 193.24 423.65 193.44 416.69 194.08 409.76 195.17 402.9 196.36 396.04 197.95 389.39 199.91 382.96 201.91 376.53 204.26 370.32 206.92 364.33 209.58 358.33 212.52 352.54 215.72 346.97 218.88 341.39 222.28 336.02 225.88 330.86 229.42 325.68 233.15 320.7 237.05 315.94 240.86 311.13 244.84 306.52 248.97 302.1 253 297.63 257.18 293.33 261.49 289.22 265.71 285.03 270.07 281 274.56 277.13 278.97 273.17 283.52 269.34 288.21 265.66 292.81 261.86 297.58 258.18 302.49 254.63 307.34 250.95 312.35 247.38 317.53 243.93 322.65 240.34 327.95 236.87 333.42 233.52 338.86 230.04 344.48 226.7 350.29 223.51 356.06 220.2 362.04 217.07 368.21 214.13 374.35 211.11 380.71 208.32 387.26 205.79 393.8 203.24 400.56 200.98 407.51 199.05" stroke-dasharray="8 7" transform="rotate(32.32, 400, 400)" opacity="0.97"></path><path d="M411.39 209.98C418.02 208.15 424.68 206.72 431.36 205.69 438.04 204.73 444.75 204.2 451.45 204.09 458.16 204.09 464.87 204.53 471.54 205.38 478.22 206.38 484.86 207.8 491.43 209.63 497.99 211.6 504.47 213.98 510.84 216.74 517.17 219.63 523.35 222.9 529.36 226.51 535.3 230.24 541.03 234.3 546.51 238.65 551.88 243.11 556.95 247.85 561.69 252.83 566.28 257.9 570.49 263.19 574.28 268.68 577.88 274.23 581.02 279.96 583.68 285.85 586.11 291.78 588.03 297.84 589.42 304.02 590.59 310.22 591.22 316.53 591.31 322.9 591.2 329.3 590.58 335.76 589.46 342.26 588.2 348.77 586.5 355.32 584.38 361.87 582.23 368.43 579.73 374.99 576.94 381.53 574.24 388.08 571.33 394.59 568.26 401.06 565.42 407.52 562.56 413.78 559.73 419.81 557.21 425.84 554.75 431.63 552.37 437.19 549.35 445.39 544.17 460.52 541.93 467.43 540.1 474.07 536.52 486.04 534.59 491.39 530.31 501.14 521.67 514.02 517.77 517.84 513.52 521.75 503.31 529.41 497.37 533.28 491.03 537.46 476.79 546.24 468.94 550.85 463.59 554.19 457.98 557.54 452.14 560.87 446.27 564.42 440.19 567.93 433.89 571.35 427.59 574.94 421.1 578.38 414.42 581.63 407.74 584.94 401.05 587.9 394.36 590.49 387.68 593.03 381.01 595.12 374.38 596.75 367.74 598.25 361.15 599.23 354.6 599.69 348.06 599.95 341.58 599.68 335.16 598.87 328.76 597.83 322.44 596.26 316.21 594.18 309.99 591.88 303.87 589.08 297.88 585.83 291.91 582.37 286.08 578.49 280.39 574.21 274.75 569.78 269.27 564.99 263.98 559.89 258.74 554.67 253.72 549.18 248.92 543.45 244.2 537.64 239.73 531.64 235.53 525.47 231.43 519.26 227.62 512.91 224.13 506.46 220.75 499.98 217.71 493.43 215.03 486.82 212.48 480.21 210.29 473.55 208.5 466.88 206.84 460.21 205.58 453.53 204.74 446.87 204.02 440.2 203.72 433.56 203.84 426.95 204.08 420.34 204.74 413.76 205.83 407.24 207 400.71 208.56 394.39 210.46 388.27 212.41 382.15 214.69 376.23 217.25 370.51 219.83 364.78 222.68 359.25 225.77 353.93 228.83 348.58 232.12 343.43 235.61 338.48 239.05 333.5 242.67 328.7 246.46 324.1 250.18 319.45 254.06 314.98 258.08 310.69 264.05 304.25 276.56 292.06 283.09 286.27 287.39 282.37 291.84 278.61 296.41 274.97 300.91 271.22 305.55 267.6 310.34 264.09 315.05 260.46 319.92 256.94 324.94 253.55 329.91 250.03 335.04 246.62 340.33 243.35 345.58 239.95 351 236.69 356.58 233.59 362.14 230.38 367.88 227.35 373.8 224.51 379.7 221.6 385.78 218.91 392.04 216.48 398.3 214.02 404.75 211.84 411.38 209.98" stroke-dasharray="7 8" transform="rotate(36.36, 400, 400)" opacity="0.19"></path><path d="M414.84 220.91C421.13 219.15 427.44 217.76 433.75 216.74 440.06 215.79 446.37 215.23 452.67 215.06 465.26 215.04 477.75 216.63 489.93 219.73 502.04 223.34 513.71 228.44 524.67 234.85 535.35 241.71 545.1 249.77 553.61 258.81 561.57 268.17 568.03 278.38 572.75 289.21 576.71 300.24 578.81 311.78 578.96 323.63 578.47 335.57 576.23 347.76 572.37 360 570.4 366.13 568.12 372.26 565.57 378.38 563.1 384.5 560.44 390.59 557.6 396.63 554.97 402.68 552.3 408.53 549.63 414.17 547.23 419.8 544.86 425.23 542.53 430.43 538.78 440.82 535.19 450.31 531.72 458.85 529.24 467.38 526.56 475.02 523.51 481.74 520.97 488.58 517.7 494.66 513.55 500.04 509.5 505.78 504.34 511.06 498.06 515.98 491.68 521.57 484.11 527.05 475.43 532.45 466.63 538.72 456.76 545.01 445.96 551.19 440.54 554.57 434.89 557.89 429.05 561.11 423.19 564.46 417.14 567.68 410.91 570.7 404.67 573.77 398.41 576.52 392.14 578.92 385.88 581.29 379.62 583.24 373.38 584.78 360.92 587.49 348.56 588.3 336.46 587.2 324.42 585.35 312.67 581.57 301.38 576.06 290.21 569.85 279.56 562.08 269.64 553.05 259.94 543.57 251.06 533.07 243.22 521.84 235.73 510.4 229.39 498.42 224.38 486.14 219.84 473.82 216.7 461.29 215.12 448.75 214.51 442.49 214.29 436.22 214.46 429.98 214.74 423.74 215.42 417.52 216.49 411.35 217.64 405.17 219.16 399.17 221 393.36 222.88 387.55 225.08 381.91 227.55 376.47 232.51 365.54 238.48 355.32 245.24 345.84 251.83 336.24 259.13 327.28 267 319 274.58 310.49 282.72 302.53 291.34 295.15 299.66 287.42 308.52 280.14 317.86 273.35 326.97 266.14 336.65 259.34 346.88 253.07 356.97 246.38 367.7 240.25 379.03 234.85 384.67 232.06 390.48 229.49 396.45 227.15 402.41 224.79 408.54 222.7 414.83 220.91" stroke-dasharray="9 1" transform="rotate(40.400000000000006, 400, 400)" opacity="0.72"></path><path d="M417.76 231.84C429.63 228.51 441.51 226.59 453.25 226.08 464.99 225.91 476.54 227.23 487.73 229.94 498.82 233.09 509.42 237.62 519.28 243.37 528.88 249.52 537.54 256.8 545.01 265.02 551.99 273.53 557.58 282.85 561.56 292.8 564.93 302.92 566.62 313.56 566.57 324.52 566.04 335.57 563.94 346.87 560.4 358.23 556.85 369.64 552.3 381.06 546.94 392.31 542.28 403.57 537.47 414.11 532.73 423.85 528.99 433.57 525.31 442.49 521.7 450.57 518.95 458.67 516 465.98 512.74 472.5 509.98 479.17 506.58 485.18 502.45 490.6 498.47 496.36 493.53 501.74 487.62 506.79 481.66 512.44 474.64 517.96 466.63 523.37 458.52 529.51 449.43 535.61 439.46 541.52 429.44 548.06 418.58 554.24 407 559.77 395.42 565.47 383.71 569.87 372.04 572.81 360.41 575.4 348.85 576.28 337.54 575.44 326.29 573.99 315.31 570.79 304.79 566 294.38 560.61 284.49 553.78 275.3 545.74 266.34 537.29 258.16 527.84 250.96 517.65 244.1 507.25 238.32 496.28 233.79 484.95 229.69 473.56 226.89 461.92 225.54 450.21 224.62 438.5 225.12 426.75 227.15 415.1 229.47 403.45 233.09 392.43 237.79 382.09 242.56 371.71 248.27 361.96 254.75 352.86 261.11 343.65 268.14 335.01 275.73 326.97 283.08 318.72 290.97 310.97 299.31 303.74 307.4 296.2 315.99 289.07 325.01 282.42 333.84 275.39 343.19 268.78 353.02 262.68 362.73 256.24 373 250.34 383.8 245.16 394.54 239.8 405.88 235.29 417.75 231.84" stroke-dasharray="1 1" transform="rotate(44.44, 400, 400)" opacity="0.15"></path><path d="M420.04 242.77C431.19 239.58 442.26 237.71 453.13 237.12 463.98 236.83 474.59 237.9 484.78 240.25 494.87 242.97 504.42 246.96 513.22 252.08 521.77 257.55 529.42 264.07 535.92 271.47 542.01 279.14 546.81 287.6 550.16 296.65 553.01 305.87 554.37 315.6 554.19 325.66 553.63 335.8 551.7 346.21 548.48 356.7 545.29 367.22 541.17 377.79 536.28 388.24 531.99 398.68 527.48 408.48 522.95 417.58 519.26 426.66 515.56 435.05 511.85 442.71 508.9 450.39 505.75 457.41 502.31 463.75 499.35 470.23 495.84 476.18 491.71 481.61 487.76 487.36 483 492.78 477.4 497.91 471.79 503.55 465.26 509.05 457.84 514.4 450.36 520.37 441.99 526.23 432.79 531.85 423.56 537.99 413.55 543.73 402.84 548.84 392.14 554.09 381.29 558.13 370.48 560.86 359.69 563.31 348.97 564.22 338.47 563.61 328.05 562.49 317.89 559.8 308.16 555.67 298.56 551.04 289.45 545.07 281.01 537.97 272.79 530.5 265.32 522.07 258.78 512.89 252.55 503.51 247.32 493.54 243.27 483.17 239.59 472.74 237.12 462 236 451.14 235.25 440.27 235.83 429.3 237.81 418.38 240.07 407.45 243.52 397.07 248 387.28 252.54 377.45 257.99 368.16 264.16 359.45 270.25 350.64 276.99 342.33 284.26 334.55 291.34 326.59 298.94 319.06 306.97 312.01 314.79 304.69 323.07 297.76 331.76 291.28 340.28 284.48 349.26 278.08 358.67 272.19 367.97 266.02 377.76 260.38 388 255.43 398.2 250.34 408.9 246.05 420.04 242.77" stroke-dasharray="1 1" transform="rotate(48.48, 400, 400)" opacity="0.53"></path><path d="M421.61 253.7C431.99 250.68 442.24 248.86 452.22 248.22 462.19 247.82 471.85 248.66 481.05 250.67 490.15 253 498.69 256.48 506.48 260.99 514.05 265.81 520.74 271.6 526.37 278.22 531.66 285.07 535.77 292.67 538.57 300.84 540.98 309.16 542.07 317.99 541.8 327.14 541.26 336.38 539.5 345.89 536.6 355.51 533.76 365.16 530.06 374.88 525.62 384.53 521.69 394.17 517.49 403.26 513.19 411.74 509.6 420.21 505.91 428.09 502.17 435.34 499.08 442.63 495.78 449.35 492.22 455.51 489.08 461.81 485.49 467.66 481.37 473.06 477.44 478.77 472.82 484.18 467.48 489.31 462.18 494.89 456.07 500.31 449.19 505.55 442.27 511.3 434.56 516.89 426.11 522.19 417.62 527.91 408.42 533.22 398.58 537.91 388.75 542.72 378.77 546.41 368.82 548.93 358.9 551.22 349.03 552.14 339.38 551.71 329.81 550.87 320.48 548.63 311.57 545.09 302.79 541.14 294.49 535.96 286.82 529.73 279.35 523.19 272.59 515.72 266.7 507.52 261.09 499.15 256.41 490.16 252.81 480.75 249.55 471.27 247.41 461.45 246.49 451.44 245.9 441.43 246.54 431.26 248.47 421.08 250.64 410.9 253.93 401.16 258.16 391.93 262.47 382.67 267.62 373.86 273.47 365.56 279.25 357.17 285.67 349.21 292.59 341.71 299.37 334.06 306.64 326.8 314.31 319.96 321.82 312.9 329.77 306.2 338.07 299.93 346.24 293.39 354.82 287.25 363.76 281.6 372.63 275.72 381.91 270.36 391.57 265.67 401.19 260.86 411.23 256.81 421.61 253.7" stroke-dasharray="8 9" transform="rotate(52.52, 400, 400)" opacity="0.50"></path><path d="M422.4 264.63C432 261.78 441.41 260.02 450.5 259.34 459.58 258.86 468.3 259.5 476.54 261.2 484.69 263.16 492.26 266.16 499.11 270.11 505.76 274.31 511.58 279.41 516.43 285.27 520.99 291.33 524.49 298.09 526.84 305.4 528.87 312.85 529.75 320.78 529.44 329.05 528.94 337.39 527.37 346.01 524.78 354.77 522.26 363.56 518.96 372.44 514.96 381.3 511.39 390.16 507.5 398.56 503.45 406.43 499.99 414.31 496.37 421.7 492.66 428.55 489.48 435.45 486.09 441.88 482.46 447.84 479.21 453.93 475.56 459.64 471.46 464.98 467.55 470.58 463.06 475.92 457.97 481 452.93 486.45 447.21 491.73 440.82 496.79 434.41 502.28 427.31 507.56 419.56 512.52 411.78 517.82 403.37 522.7 394.38 526.97 385.39 531.35 376.28 534.71 367.19 537.01 358.14 539.13 349.15 540.05 340.36 539.75 331.65 539.14 323.18 537.29 315.11 534.28 307.16 530.93 299.66 526.48 292.76 521.06 286.04 515.37 279.99 508.81 274.74 501.55 269.74 494.13 265.6 486.11 262.45 477.64 259.58 469.1 257.74 460.19 257.02 451.05 256.59 441.9 257.27 432.55 259.13 423.12 261.21 413.69 264.31 404.62 268.28 395.97 272.33 387.29 277.17 378.99 282.66 371.12 288.12 363.17 294.18 355.59 300.71 348.41 307.15 341.11 314.05 334.14 321.33 327.57 328.48 320.81 336.04 314.39 343.91 308.36 351.69 302.13 359.83 296.28 368.27 290.9 376.66 285.35 385.4 280.29 394.44 275.87 403.45 271.36 412.8 267.57 422.4 264.63" stroke-dasharray="3 4" transform="rotate(56.56, 400, 400)" opacity="0.54"></path><path d="M422.39 275.56C431.19 272.89 439.74 271.21 447.96 270.5 456.15 269.96 463.96 270.43 471.27 271.84 478.5 273.46 485.16 276.03 491.13 279.44 496.94 283.07 501.98 287.5 506.12 292.65 510.05 297.96 513.03 303.92 514.98 310.4 516.71 316.99 517.43 324.06 517.11 331.45 516.67 338.91 515.28 346.66 513 354.58 510.8 362.51 507.88 370.58 504.3 378.66 501.07 386.75 497.5 394.46 493.73 401.75 490.43 409.05 486.93 415.94 483.29 422.39 480.1 428.89 476.69 435.02 473.04 440.74 469.72 446.6 466.05 452.13 462 457.35 458.14 462.79 453.78 467.99 448.93 472.95 444.14 478.21 438.77 483.29 432.83 488.13 426.91 493.3 420.38 498.25 413.29 502.85 406.19 507.72 398.53 512.18 390.37 516.04 382.21 520 373.96 523.03 365.74 525.1 357.55 527.05 349.44 527.93 341.52 527.75 333.67 527.33 326.06 525.81 318.83 523.26 311.71 520.45 305.02 516.64 298.88 511.96 292.91 507.06 287.55 501.35 282.92 494.98 278.52 488.47 274.9 481.37 272.17 473.81 269.69 466.19 268.14 458.18 267.6 449.91 267.3 441.62 268.01 433.09 269.79 424.43 271.76 415.77 274.66 407.39 278.36 399.34 282.14 391.27 286.65 383.5 291.76 376.09 296.86 368.62 302.53 361.45 308.65 354.64 314.7 347.72 321.18 341.1 328.02 334.83 334.77 328.42 341.89 322.32 349.29 316.59 356.62 310.7 364.27 305.18 372.18 300.11 380.05 294.9 388.2 290.17 396.59 286.04 404.96 281.84 413.59 278.31 422.39 275.56" stroke-dasharray="7 6" transform="rotate(60.599999999999994, 400, 400)" opacity="0.23"></path><path d="M421.57 286.5C429.56 284.01 437.26 282.42 444.61 281.71 451.93 281.12 458.86 281.43 465.29 282.59 471.65 283.91 477.46 286.07 482.63 288.99 489.83 293.99 500.15 307.57 503.06 315.85 504.53 321.63 505.13 327.85 504.83 334.41 504.46 341.02 503.26 347.92 501.28 355 499.38 362.11 496.81 369.37 493.64 376.7 490.75 384.03 487.5 391.07 484.02 397.77 480.91 404.49 477.58 410.88 474.07 416.92 470.92 423.01 467.55 428.8 463.95 434.25 460.63 439.82 456.99 445.13 453.03 450.16 449.24 455.38 445.04 460.38 440.42 465.15 435.88 470.16 430.85 474.98 425.36 479.54 419.88 484.37 413.9 488.95 407.45 493.18 400.99 497.61 394.06 501.64 386.71 505.11 379.35 508.66 371.94 511.37 364.59 513.22 357.26 514.99 350.01 515.82 342.96 515.72 335.97 515.44 329.21 514.2 322.81 512.06 316.51 509.71 310.61 506.49 305.22 502.48 299.98 498.29 295.29 493.37 291.27 487.83 287.44 482.17 284.32 475.95 281.99 469.27 279.88 462.54 278.59 455.42 278.21 447.99 278.03 440.56 278.76 432.86 280.45 424.98 282.3 417.1 284.99 409.42 288.4 401.99 291.89 394.56 296.05 387.35 300.76 380.44 305.48 373.48 310.72 366.78 316.39 360.37 322.01 353.89 328.04 347.66 334.4 341.75 340.69 335.73 347.32 329.99 354.21 324.61 361.04 319.11 368.15 313.94 375.48 309.21 382.77 304.38 390.31 300 398.01 296.17 405.7 292.3 413.58 289.04 421.57 286.5" stroke-dasharray="1 9" transform="rotate(64.64, 400, 400)" opacity="0.10"></path><path d="M419.98 297.43C427.14 295.14 434 293.66 440.5 292.95 450.01 292.43 466.71 295.4 473.65 298.77 479.84 302.99 488.64 314.62 491.09 321.79 492.61 329.5 491.81 346.78 489.61 356.11 487.98 362.4 485.77 368.88 482.98 375.47 480.42 382.05 477.5 388.42 474.32 394.53 471.44 400.66 468.3 406.54 464.98 412.15 461.94 417.79 458.66 423.21 455.17 428.35 451.91 433.59 448.36 438.61 444.55 443.4 440.87 448.33 436.85 453.06 432.49 457.58 428.21 462.27 423.52 466.78 418.46 471.03 413.42 475.47 407.97 479.66 402.14 483.5 396.31 487.5 390.09 491.1 383.52 494.18 376.96 497.33 370.37 499.72 363.86 501.36 357.37 502.94 350.97 503.7 344.78 503.66 335.67 502.98 319.06 497.4 311.83 492.64 305.27 487 295.2 472.56 291.93 464.03 290.15 458.15 289.11 451.88 288.87 445.3 288.8 438.71 289.52 431.83 291.11 424.74 292.83 417.65 295.29 410.69 298.41 403.92 301.59 397.15 305.38 390.54 309.67 384.17 313.98 377.77 318.77 371.57 323.95 365.62 329.11 359.61 334.64 353.83 340.47 348.33 346.27 342.75 352.36 337.42 358.68 332.43 364.96 327.35 371.49 322.58 378.19 318.22 384.87 313.79 391.74 309.77 398.72 306.27 405.71 302.74 412.82 299.76 419.98 297.43" stroke-dasharray="3 8" transform="rotate(68.68, 400, 400)" opacity="0.79"></path><path d="M417.67 308.36C430.34 304.26 441.76 303.05 451.45 304.41 460.97 306.16 468.54 310.47 473.68 316.88 478.5 323.6 480.84 332.21 480.47 342.13 480.04 352.16 477.29 363.3 472.32 375 468.03 386.69 462.41 397.84 456.01 408.08 450.46 418.47 443.92 428.2 436.55 437.03 429.65 446.3 421.5 454.95 412.23 462.57 403.06 470.76 392.53 477.91 380.93 483.25 369.33 488.78 357.82 491.53 347.05 491.59 336.43 491.29 326.77 488.13 318.74 482.49 311.08 476.46 305.3 468.15 301.97 458.12 299.18 447.95 298.97 436.31 301.77 423.73 305.01 411.14 310.83 398.83 318.5 387.28 326.27 375.64 335.74 364.59 346.26 354.57 356.73 344.33 368.27 335 380.33 327.14 392.37 319.09 405.01 312.59 417.67 308.36" stroke-dasharray="4 7" transform="rotate(72.72, 400, 400)" opacity="0.12"></path><path d="M414.73 319.29C425.74 315.62 435.55 314.45 443.77 315.49 451.88 316.81 458.27 320.33 462.57 325.67 466.67 331.24 468.67 338.48 468.41 346.94 468.14 355.47 465.89 365.08 461.66 375.32 457.95 385.55 452.94 395.46 447.14 404.71 441.97 414.06 435.85 422.93 429.02 431.03 422.55 439.45 415.05 447.3 406.7 454.16 398.43 461.43 389.12 467.7 379.02 472.32 368.92 477.08 359.02 479.45 349.87 479.51 340.82 479.35 332.67 476.77 325.98 472.06 319.57 467.09 314.79 460.12 312.14 451.6 309.89 442.97 309.87 432.95 312.43 421.97 315.34 410.98 320.48 400.11 327.24 389.8 334.12 379.43 342.49 369.52 351.8 360.51 361.11 351.35 371.34 343 381.99 335.97 392.63 328.83 403.73 323.06 414.73 319.29" stroke-dasharray="5 4" transform="rotate(76.76, 400, 400)" opacity="0.21"></path><path d="M411.26 330.22C420.62 327.01 428.88 325.9 435.75 326.68 445.2 329.03 455.73 342.31 456.44 352.37 456.32 359.49 454.52 367.62 451 376.41 447.85 385.2 443.5 393.84 438.38 401.99 433.69 410.23 428.13 418.12 421.95 425.36 416.04 432.83 409.29 439.76 401.9 445.79 394.59 452.09 386.49 457.47 377.86 461.39 369.23 465.41 360.89 467.39 353.27 467.45 345.72 467.37 339.01 465.28 333.56 461.42 328.32 457.39 324.48 451.64 322.44 444.53 320.68 437.35 320.79 428.9 323.09 419.52 325.65 410.14 330.09 400.74 335.92 391.75 341.86 382.74 349.09 374.07 357.12 366.15 365.19 358.15 374.03 350.85 383.2 344.71 392.39 338.52 401.9 333.51 411.26 330.22" stroke-dasharray="9 1" transform="rotate(80.80000000000001, 400, 400)" opacity="0.97"></path><path d="M407.39 341.15C418.5 337.92 435.21 339.71 440.29 344.29 443.88 350.25 443.88 367.55 440.34 378.24 437.75 385.59 434.08 392.9 429.69 399.89 425.59 406.93 420.71 413.73 415.3 419.98 410.07 426.38 404.18 432.32 397.83 437.45 391.54 442.75 384.68 447.23 377.5 450.46 370.31 453.75 363.48 455.37 357.31 455.41 348.5 454.54 335.87 445.09 332.87 437 331.55 431.16 331.76 424.23 333.75 416.45 335.93 408.67 339.66 400.8 344.53 393.21 349.5 385.61 355.55 378.26 362.27 371.53 369.03 364.76 376.43 358.58 384.08 353.38 391.75 348.16 399.66 343.94 407.39 341.15" stroke-dasharray="5 4" transform="rotate(84.84, 400, 400)" opacity="0.89"></path><path d="M403.25 352.08C415.5 347.67 424.58 348.78 429.25 354.07 433.84 359.55 434.23 368.95 429.68 380.76 425.77 392.56 418.2 404.61 409.05 414.85 400.35 425.42 389.45 434.5 377.94 439.53 366.42 444.73 356.43 444.46 349.87 439.67 343.62 434.67 341.23 425.26 344.4 412.88 348.08 400.49 356.58 387.59 367.28 376.68 378.12 365.71 391 356.64 403.25 352.08" stroke-dasharray="7 4" transform="rotate(88.88, 400, 400)" opacity="0.43"></path><path d="M399 363.01C411.46 359.98 422.08 371.52 419.02 383.88 416.09 392.77 410.25 402.01 403.14 409.92 396.28 417.98 387.83 424.86 379.17 428.6 366.87 432.32 353.35 421.58 355.06 408.89 357.86 399.65 364.23 389.92 372.21 381.64 380.3 373.35 389.9 366.49 399 363.01" stroke-dasharray="1 11" transform="rotate(92.92, 400, 400)" opacity="0.76"></path><path d="M394.78 373.94C406.78 369.38 412.69 375.57 408.36 387.5 404.63 399.42 392.75 412.79 381.15 417.67 369.54 422.71 362.37 416.86 365.72 404.63 369.62 392.38 382.77 378.66 394.78 373.94" stroke-dasharray="6 4" transform="rotate(96.96, 400, 400)" opacity="0.77"></path></g></svg>