<svg xmlns="http://www.w3.org/2000/svg" version="1.1" xmlns:xlink="http://www.w3.org/1999/xlink" xmlns:svgjs="http://svgjs.dev/svgjs" viewBox="0 0 800 800"><defs><linearGradient x1="50%" y1="0%" x2="50%" y2="100%" id="cccoil-grad"><stop stop-color="hsl(1.4, 100%, 67%)" stop-opacity="1" offset="0%"></stop><stop stop-color="hsl(167, 52%, 78%)" stop-opacity="1" offset="100%"></stop></linearGradient></defs><g stroke="url(#cccoil-grad)" fill="none" stroke-linecap="round"><circle r="456" cx="400" cy="400" stroke-width="17.5" stroke-dasharray="2865 2865" transform="rotate(360, 400, 400)" stroke-dashoffset="174" opacity="0.05"></circle><circle r="437" cx="400" cy="400" stroke-width="17.5" stroke-dasharray="2626 2746" transform="rotate(344, 400, 400)" stroke-dashoffset="174" opacity="0.09"></circle><circle r="418" cx="400" cy="400" stroke-width="17.5" stroke-dasharray="2398 2626" transform="rotate(329, 400, 400)" stroke-dashoffset="174" opacity="0.13"></circle><circle r="399" cx="400" cy="400" stroke-width="17.5" stroke-dasharray="2180 2507" transform="rotate(313, 400, 400)" stroke-dashoffset="174" opacity="0.17"></circle><circle r="380" cx="400" cy="400" stroke-width="17.5" stroke-dasharray="1972 2388" transform="rotate(297, 400, 400)" stroke-dashoffset="174" opacity="0.22"></circle><circle r="361" cx="400" cy="400" stroke-width="17.5" stroke-dasharray="1775 2268" transform="rotate(282, 400, 400)" stroke-dashoffset="174" opacity="0.26"></circle><circle r="342" cx="400" cy="400" stroke-width="17.5" stroke-dasharray="1588 2149" transform="rotate(266, 400, 400)" stroke-dashoffset="174" opacity="0.30"></circle><circle r="323" cx="400" cy="400" stroke-width="17.5" stroke-dasharray="1412 2029" transform="rotate(250, 400, 400)" stroke-dashoffset="174" opacity="0.34"></circle><circle r="304" cx="400" cy="400" stroke-width="17.5" stroke-dasharray="1246 1910" transform="rotate(235, 400, 400)" stroke-dashoffset="174" opacity="0.38"></circle><circle r="285" cx="400" cy="400" stroke-width="17.5" stroke-dasharray="1090 1791" transform="rotate(219, 400, 400)" stroke-dashoffset="174" opacity="0.42"></circle><circle r="266" cx="400" cy="400" stroke-width="17.5" stroke-dasharray="945 1671" transform="rotate(203, 400, 400)" stroke-dashoffset="174" opacity="0.46"></circle><circle r="247" cx="400" cy="400" stroke-width="17.5" stroke-dasharray="810 1552" transform="rotate(188, 400, 400)" stroke-dashoffset="174" opacity="0.50"></circle><circle r="228" cx="400" cy="400" stroke-width="17.5" stroke-dasharray="685 1433" transform="rotate(172, 400, 400)" stroke-dashoffset="174" opacity="0.55"></circle><circle r="209" cx="400" cy="400" stroke-width="17.5" stroke-dasharray="571 1313" transform="rotate(157, 400, 400)" stroke-dashoffset="174" opacity="0.59"></circle><circle r="190" cx="400" cy="400" stroke-width="17.5" stroke-dasharray="467 1194" transform="rotate(141, 400, 400)" stroke-dashoffset="174" opacity="0.63"></circle><circle r="171" cx="400" cy="400" stroke-width="17.5" stroke-dasharray="374 1074" transform="rotate(125, 400, 400)" stroke-dashoffset="174" opacity="0.67"></circle><circle r="152" cx="400" cy="400" stroke-width="17.5" stroke-dasharray="291 955" transform="rotate(110, 400, 400)" stroke-dashoffset="174" opacity="0.71"></circle><circle r="133" cx="400" cy="400" stroke-width="17.5" stroke-dasharray="218 836" transform="rotate(94, 400, 400)" stroke-dashoffset="174" opacity="0.75"></circle><circle r="114" cx="400" cy="400" stroke-width="17.5" stroke-dasharray="156 716" transform="rotate(78, 400, 400)" stroke-dashoffset="174" opacity="0.79"></circle><circle r="95" cx="400" cy="400" stroke-width="17.5" stroke-dasharray="104 597" transform="rotate(63, 400, 400)" stroke-dashoffset="174" opacity="0.83"></circle><circle r="76" cx="400" cy="400" stroke-width="17.5" stroke-dasharray="62 478" transform="rotate(47, 400, 400)" stroke-dashoffset="174" opacity="0.88"></circle><circle r="57" cx="400" cy="400" stroke-width="17.5" stroke-dasharray="31 358" transform="rotate(31, 400, 400)" stroke-dashoffset="174" opacity="0.92"></circle><circle r="38" cx="400" cy="400" stroke-width="17.5" stroke-dasharray="10 239" transform="rotate(16, 400, 400)" stroke-dashoffset="174" opacity="0.96"></circle><circle r="19" cx="400" cy="400" stroke-width="17.5" stroke-dasharray="0 119" stroke-dashoffset="174" opacity="1.00"></circle></g></svg>