<svg xmlns="http://www.w3.org/2000/svg" version="1.1" xmlns:xlink="http://www.w3.org/1999/xlink" xmlns:svgjs="http://svgjs.dev/svgjs" viewBox="0 0 800 800"><defs><linearGradient x1="50%" y1="0%" x2="50%" y2="100%" id="cccoil-grad"><stop stop-color="hsl(185, 53%, 55%)" stop-opacity="1" offset="0%"></stop><stop stop-color="hsl(0, 73%, 55%)" stop-opacity="1" offset="100%"></stop></linearGradient></defs><g stroke="url(#cccoil-grad)" fill="none" stroke-linecap="round"><circle r="105" cx="400" cy="400" stroke-width="20" stroke-dasharray="660 660" stroke-dashoffset="1000" opacity="0.05"></circle><circle r="94.5" cx="400" cy="400" stroke-width="20" stroke-dasharray="528 594" transform="rotate(40, 400, 400)" stroke-dashoffset="1000" opacity="0.16"></circle><circle r="84" cx="400" cy="400" stroke-width="20" stroke-dasharray="411 528" transform="rotate(80, 400, 400)" stroke-dashoffset="1000" opacity="0.26"></circle><circle r="73.5" cx="400" cy="400" stroke-width="20" stroke-dasharray="308 462" transform="rotate(120, 400, 400)" stroke-dashoffset="1000" opacity="0.37"></circle><circle r="63" cx="400" cy="400" stroke-width="20" stroke-dasharray="220 396" transform="rotate(160, 400, 400)" stroke-dashoffset="1000" opacity="0.47"></circle><circle r="52.5" cx="400" cy="400" stroke-width="20" stroke-dasharray="147 330" transform="rotate(200, 400, 400)" stroke-dashoffset="1000" opacity="0.58"></circle><circle r="42" cx="400" cy="400" stroke-width="20" stroke-dasharray="88 264" transform="rotate(240, 400, 400)" stroke-dashoffset="1000" opacity="0.68"></circle><circle r="31.5" cx="400" cy="400" stroke-width="20" stroke-dasharray="44 198" transform="rotate(280, 400, 400)" stroke-dashoffset="1000" opacity="0.79"></circle><circle r="21" cx="400" cy="400" stroke-width="20" stroke-dasharray="15 132" transform="rotate(320, 400, 400)" stroke-dashoffset="1000" opacity="0.89"></circle><circle r="10.5" cx="400" cy="400" stroke-width="20" stroke-dasharray="0 66" transform="rotate(360, 400, 400)" stroke-dashoffset="1000" opacity="1.00"></circle></g></svg>